<svg width="20" height="20" viewBox="0 0 20 20" fill="none" xmlns="http://www.w3.org/2000/svg">
    <path d="M6.81667 0H2.35C1.72742 0.00219608 1.13096 0.25049 0.690725 0.690725C0.25049 1.13096 0.00219608 1.72742 0 2.35V6.81667C0.00219608 7.43925 0.25049 8.03571 0.690725 8.47594C1.13096 8.91618 1.72742 9.16447 2.35 9.16667H6.81667C7.43925 9.16447 8.03571 8.91618 8.47594 8.47594C8.91618 8.03571 9.16447 7.43925 9.16667 6.81667V2.35C9.16447 1.72742 8.91618 1.13096 8.47594 0.690725C8.03571 0.25049 7.43925 0.00219608 6.81667 0ZM7.5 6.81667C7.5 6.9979 7.42801 7.17171 7.29986 7.29986C7.17171 7.42801 6.9979 7.5 6.81667 7.5H2.35C2.16877 7.5 1.99496 7.42801 1.86681 7.29986C1.73866 7.17171 1.66667 6.9979 1.66667 6.81667V2.35C1.66667 2.16877 1.73866 1.99496 1.86681 1.86681C1.99496 1.73866 2.16877 1.66667 2.35 1.66667H6.81667C6.9979 1.66667 7.17171 1.73866 7.29986 1.86681C7.42801 1.99496 7.5 2.16877 7.5 2.35V6.81667Z" fill="#999999"/>
    <path d="M17.6487 0H13.182C12.5594 0.00219608 11.963 0.25049 11.5228 0.690725C11.0825 1.13096 10.8342 1.72742 10.832 2.35V6.81667C10.8342 7.43925 11.0825 8.03571 11.5228 8.47594C11.963 8.91618 12.5594 9.16447 13.182 9.16667H17.6487C18.2713 9.16447 18.8677 8.91618 19.308 8.47594C19.7482 8.03571 19.9965 7.43925 19.9987 6.81667V2.35C19.9965 1.72742 19.7482 1.13096 19.308 0.690725C18.8677 0.25049 18.2713 0.00219608 17.6487 0ZM18.332 6.81667C18.332 6.9979 18.26 7.17171 18.1319 7.29986C18.0037 7.42801 17.8299 7.5 17.6487 7.5H13.182C13.0008 7.5 12.827 7.42801 12.6988 7.29986C12.5707 7.17171 12.4987 6.9979 12.4987 6.81667V2.35C12.4987 2.16877 12.5707 1.99496 12.6988 1.86681C12.827 1.73866 13.0008 1.66667 13.182 1.66667H17.6487C17.8299 1.66667 18.0037 1.73866 18.1319 1.86681C18.26 1.99496 18.332 2.16877 18.332 2.35V6.81667Z" fill="#999999"/>
    <path d="M6.81667 10.832H2.35C1.72742 10.8342 1.13096 11.0825 0.690725 11.5228C0.25049 11.963 0.00219608 12.5594 0 13.182V17.6487C0.00219608 18.2713 0.25049 18.8677 0.690725 19.308C1.13096 19.7482 1.72742 19.9965 2.35 19.9987H6.81667C7.43925 19.9965 8.03571 19.7482 8.47594 19.308C8.91618 18.8677 9.16447 18.2713 9.16667 17.6487V13.182C9.16447 12.5594 8.91618 11.963 8.47594 11.5228C8.03571 11.0825 7.43925 10.8342 6.81667 10.832ZM7.5 17.6487C7.5 17.8299 7.42801 18.0037 7.29986 18.1319C7.17171 18.26 6.9979 18.332 6.81667 18.332H2.35C2.16877 18.332 1.99496 18.26 1.86681 18.1319C1.73866 18.0037 1.66667 17.8299 1.66667 17.6487V13.182C1.66667 13.0008 1.73866 12.827 1.86681 12.6988C1.99496 12.5707 2.16877 12.4987 2.35 12.4987H6.81667C6.9979 12.4987 7.17171 12.5707 7.29986 12.6988C7.42801 12.827 7.5 13.0008 7.5 13.182V17.6487Z" fill="#999999"/>
    <path d="M17.6487 10.832H13.182C12.5594 10.8342 11.963 11.0825 11.5228 11.5228C11.0825 11.963 10.8342 12.5594 10.832 13.182V17.6487C10.8342 18.2713 11.0825 18.8677 11.5228 19.308C11.963 19.7482 12.5594 19.9965 13.182 19.9987H17.6487C18.2713 19.9965 18.8677 19.7482 19.308 19.308C19.7482 18.8677 19.9965 18.2713 19.9987 17.6487V13.182C19.9965 12.5594 19.7482 11.963 19.308 11.5228C18.8677 11.0825 18.2713 10.8342 17.6487 10.832ZM18.332 17.6487C18.332 17.8299 18.26 18.0037 18.1319 18.1319C18.0037 18.26 17.8299 18.332 17.6487 18.332H13.182C13.0008 18.332 12.827 18.26 12.6988 18.1319C12.5707 18.0037 12.4987 17.8299 12.4987 17.6487V13.182C12.4987 13.0008 12.5707 12.827 12.6988 12.6988C12.827 12.5707 13.0008 12.4987 13.182 12.4987H17.6487C17.8299 12.4987 18.0037 12.5707 18.1319 12.6988C18.26 12.827 18.332 13.0008 18.332 13.182V17.6487Z" fill="#999999"/>
</svg>