<svg width="23" height="23" viewBox="0 0 23 23" fill="none" xmlns="http://www.w3.org/2000/svg">
    <path d="M22 19.65C22 15.15 18.35 11.5 13.85 11.5H13.8C15.675 10.625 17 8.725 17 6.5C17 3.475 14.525 1 11.5 1C8.475 1 6 3.475 6 6.5C6 8.725 7.325 10.625 9.225 11.5H9.175C4.65 11.5 1 15.15 1 19.65V22H22V19.65ZM7 6.5C7 4.025 9.025 2 11.5 2C13.975 2 16 4.025 16 6.5C16 8.975 13.975 11 11.5 11C9.025 11 7 8.975 7 6.5ZM21 21H2V19.65C2 15.7 5.2 12.5 9.15 12.5H13.85C17.8 12.5 21 15.7 21 19.65V21Z" fill="#999999" stroke="#999999" stroke-width="0.5"/>
</svg>