<svg width="100" height="100" viewBox="0 0 100 100" fill="none" xmlns="http://www.w3.org/2000/svg">
<path d="M93.5658 40.3338C92.3963 39.3875 90.45 37.8089 90.2062 37.0609C89.9584 36.2839 90.5988 33.7839 90.9832 32.2962C91.9047 28.7052 93.0535 24.238 90.4791 20.7214C87.917 17.2296 83.3094 16.9238 79.6068 16.6757C78.0736 16.5683 75.5033 16.3988 74.8545 15.9277C74.1975 15.4525 73.2098 13.0185 72.6189 11.5597C71.1602 7.94391 69.499 3.84449 65.4451 2.53863C61.4119 1.22047 57.7258 3.55524 54.4818 5.60895C53.052 6.50973 50.899 7.8736 49.9982 7.8736C49.1346 7.8736 47.0064 6.48922 45.5932 5.57184C42.4732 3.54274 38.5723 1.03024 34.4605 2.42711C30.4148 3.80328 28.7703 7.8777 27.3115 11.4646C26.7248 12.9109 25.7494 15.3242 25.0801 15.816C24.4271 16.2994 21.8113 16.473 20.2492 16.5763C16.3441 16.8408 11.9184 17.1384 9.43066 20.6591C6.98848 24.1179 8.0834 28.3826 9.05039 32.1472C9.43066 33.6431 10.0752 36.1474 9.84375 36.8953C9.5959 37.6101 7.67012 39.1929 6.52129 40.1392C3.61582 42.5365 0 45.5158 0 49.9789C0 54.4129 3.5457 57.3593 6.39277 59.723C7.62832 60.7478 9.49199 62.2974 9.74414 63.0662C9.99199 63.8265 9.34746 66.2976 8.95898 67.773C8.0168 71.397 6.83906 75.9097 9.5127 79.4552C12.1203 82.9017 16.7072 83.2074 20.3975 83.4554C21.9307 83.5629 24.4969 83.7281 25.1498 84.2035C25.8027 84.6789 26.7863 87.1086 27.3771 88.5673C28.84 92.1832 30.4971 96.2826 34.5551 97.5925C35.3691 97.8611 36.175 97.9769 36.9602 97.9769C40.0678 97.9769 42.9355 96.1588 45.5225 94.5304C46.948 93.6296 49.0971 92.2658 49.9979 92.2658C50.8781 92.2658 52.9938 93.613 54.3906 94.5056C57.4898 96.4767 61.3578 98.948 65.4613 97.5429C69.5027 96.1668 71.1475 92.0965 72.6062 88.5013C73.193 87.0591 74.1684 84.6418 74.8377 84.15C75.4947 83.6666 78.0939 83.4929 79.6479 83.3896C83.524 83.1252 87.9209 82.8318 90.4459 79.3646C92.9873 75.881 91.8963 71.5709 90.9336 67.7732C90.5576 66.2896 89.9295 63.8144 90.1566 63.0705C90.4045 62.3556 92.3303 60.7728 93.475 59.8265C96.3842 57.4297 100 54.4461 100 49.983C100 45.5572 96.4297 42.6603 93.5658 40.3338ZM88.2227 53.4543C85.8053 55.442 83.3051 57.5041 82.3215 60.4588C81.3174 63.4672 82.1356 66.6904 82.9248 69.8062C83.3092 71.3269 83.9537 73.8683 83.867 74.3931C83.2389 74.8642 80.6479 75.042 79.0982 75.1412C76.0279 75.3478 72.5484 75.5793 69.9574 77.48C67.3912 79.3603 66.1473 82.4306 64.9447 85.3978C64.358 86.8607 63.3662 89.3111 62.957 89.6832C62.2049 89.6832 60.1016 88.3318 58.8412 87.5302C56.242 85.8773 53.2955 83.997 50.002 83.997C46.7043 83.997 43.733 85.8814 41.1049 87.5427C39.832 88.3445 37.6998 89.6998 37.2453 89.799C36.6049 89.3402 35.6295 86.9187 35.0428 85.4724C33.8279 82.4681 32.5717 79.3648 29.9807 77.5009C27.4063 75.6455 24.125 75.4265 20.9473 75.2158C19.4555 75.1166 16.6744 74.9306 16.1701 74.5877C15.9139 73.8562 16.5627 71.3562 16.9553 69.8685C17.7197 66.922 18.5918 63.5832 17.6082 60.5334C16.6205 57.4879 13.9965 55.3017 11.6781 53.3759C10.5459 52.4338 8.43418 50.6775 8.25644 50.0412C8.44238 49.2642 10.6119 47.475 11.7771 46.5205C14.1945 44.5287 16.6947 42.4666 17.6783 39.5119C18.6908 36.4828 17.8561 33.2347 17.0543 30.0941C16.6658 28.5775 16.0129 26.0402 16.0625 25.5568C16.6947 25.1023 19.265 24.9287 20.8023 24.8254C24.0297 24.6105 27.3729 24.3832 29.9639 22.4865C32.5301 20.6062 33.774 17.54 34.9766 14.573C35.5633 13.106 36.5594 10.6595 36.9395 10.2918C37.7039 10.3041 39.8279 11.6843 41.0967 12.5068C43.7166 14.2093 46.692 16.1392 50.002 16.1392C53.2955 16.1392 56.275 14.2548 58.8949 12.5978C60.1678 11.792 62.3 10.4408 62.7547 10.3416C63.391 10.8004 64.3705 13.2218 64.9572 14.6681C66.1721 17.6683 67.4283 20.7716 70.0193 22.6353C72.5938 24.4949 75.8791 24.7138 79.0611 24.9246C80.6314 25.032 83.2639 25.2097 83.7555 25.5072C84.0076 26.2345 83.367 28.747 82.9785 30.2429C82.2223 33.2017 81.3627 36.5531 82.3504 39.6111C83.3463 42.6898 86.0117 44.8509 88.3631 46.756C89.4375 47.632 91.417 49.2314 91.7227 50C91.4295 50.8054 89.3508 52.5203 88.2227 53.4543Z" fill="#0253B3"/>
<path d="M68.4789 34.4123C66.7185 32.9412 64.1191 33.1808 62.6605 34.9289L44.2341 56.9587L36.3949 49.1238C34.7791 47.508 32.1673 47.508 30.5517 49.1238C28.9359 50.7396 28.9359 53.3513 30.5517 54.9669L41.5853 66.0005C42.358 66.7816 43.4119 67.2113 44.507 67.2113C44.5648 67.2113 44.6269 67.2113 44.6847 67.2031C45.85 67.1535 46.9287 66.6163 47.6724 65.7279L68.9953 40.2306C70.4582 38.4787 70.231 35.8752 68.4789 34.4123Z" fill="#0253B3"/>
</svg>
