<svg width="64" height="48" viewBox="0 0 64 48" fill="none" xmlns="http://www.w3.org/2000/svg">
<path d="M50.0074 47.2844H39.6633H36.8778H36.2763V33.4094H40.8141C41.9649 33.4094 42.6449 32.1017 41.9649 31.1601L33.1377 18.946C32.5754 18.1613 31.4115 18.1613 30.8492 18.946L22.0221 31.1601C21.3421 32.1017 22.009 33.4094 23.1729 33.4094H27.7107V47.2844H27.1091H24.3237H12.3318C5.46629 46.9051 0 40.4842 0 33.5271C0 28.7278 2.60237 24.543 6.46016 22.2807C6.10707 21.326 5.92399 20.306 5.92399 19.2337C5.92399 14.3297 9.88639 10.3673 14.7904 10.3673C15.8496 10.3673 16.8696 10.5504 17.8243 10.9035C20.662 4.88795 26.7822 0.716309 33.8962 0.716309C43.1026 0.729386 50.6874 7.77802 51.5505 16.7621C58.6253 17.9783 64 24.53 64 31.9448C64 39.8696 57.8275 46.7351 50.0074 47.2844Z" fill="#0253B3"/>
</svg>
