<?xml version="1.0" encoding="utf-8"?>
<!-- Generator: Adobe Illustrator 24.1.2, SVG Export Plug-In . SVG Version: 6.00 Build 0)  -->
<svg version="1.1" xmlns="http://www.w3.org/2000/svg" xmlns:xlink="http://www.w3.org/1999/xlink" x="0px" y="0px"
	 viewBox="0 0 679 222" style="enable-background:new 0 0 679 222;" xml:space="preserve">
<style type="text/css">
	.st0{fill:#FFFFFF;}
	.st1{fill:#0253B3;}
	.st2{fill:#27AAE1;}
	.st3{fill:#C6C4C4;}
	.st4{fill:#A5A2A2;}
</style>
<g id="Grid">
</g>
<g id="Logo">
	<g>
		<g>
			<path class="st1" d="M93.32,145.38L63.5,39.4v63.41c0,20.67-16.81,37.48-37.48,37.48H11.33l-1.43,5.08
				c-0.42,2.39,0.05,4.86,1.32,6.93l36.81,59.06c1.65,2.65,5.52,2.65,7.17,0L92,152.3C93.28,150.23,93.74,147.77,93.32,145.38z"/>
			<path class="st2" d="M26.02,122.13c10.65,0,19.32-8.67,19.32-19.32V39.29h-5.59l-23.31,82.85H26.02z"/>
			<path class="st1" d="M66.61,8.65H51.1H35.59c-2.28,0-3.81,2.35-2.88,4.43l7.12,15.93H51.1h11.26l7.12-15.93
				C70.41,11,68.89,8.65,66.61,8.65z"/>
		</g>
		<g>
			<g>
				<path class="st1" d="M157.78,60.94h24.1v86.67c0,30.51-13.02,46.06-41,52.47l-5.83-21.18c15.35-3.89,22.74-11.08,22.74-28.37
					V60.94z M158.75,21.69c6.03-6.02,16.13-6.02,22.15,0c6.03,6.02,6.03,16.13,0,22.15c-6.02,6.02-16.13,6.02-22.15,0
					C152.73,37.82,152.73,27.72,158.75,21.69z"/>
				<path class="st1" d="M191.98,109.91c0-14.57,4.47-26.62,13.41-36.14s20.99-14.38,36.34-14.38c15.35,0,27.4,4.86,36.34,14.38
					c8.94,9.52,13.41,21.57,13.41,36.14c0,14.58-4.47,26.82-13.41,36.34c-8.94,9.52-20.99,14.19-36.34,14.19
					c-15.35,0-27.4-4.66-36.34-14.19C196.45,136.73,191.98,124.49,191.98,109.91z M217.25,109.91c0,8.36,2.14,15.55,6.61,21.38
					c4.47,5.64,10.3,8.55,17.88,8.55s13.41-2.92,17.88-8.55c4.47-5.83,6.61-13.02,6.61-21.38c0-8.36-2.14-15.55-6.61-21.18
					c-4.47-5.83-10.3-8.75-17.88-8.75s-13.41,2.92-17.88,8.75C219.39,94.37,217.25,101.56,217.25,109.91z"/>
				<path class="st1" d="M302.36,60.94h24.1v15.74c7.97-11.46,18.07-17.29,30.32-17.29c18.07,0,30.12,10.3,30.12,29.54v69.96h-24.1
					V96.12c0-10.69-4.67-16.13-13.99-16.13c-12.44,0-22.35,15.16-22.35,39.84v39.06h-24.1V60.94z"/>
				<path class="st1" d="M465.98,69.88V21.3h24.1v137.58h-24.1v-10.1c-3.11,5.63-12.63,11.66-23.71,11.66
					c-28.76,0-44.7-19.63-44.7-50.53c0-30.9,15.93-50.52,44.7-50.52C451.8,59.39,461.51,64.25,465.98,69.88z M422.84,109.91
					c0,9.33,2.14,16.71,6.41,21.96c4.27,5.25,9.72,7.97,16.32,7.97s12.05-2.53,16.13-7.77c4.27-5.25,6.41-12.63,6.41-22.15
					c0-9.52-2.14-16.71-6.41-21.96c-4.08-5.25-9.52-7.97-16.13-7.97s-12.05,2.72-16.32,7.97
					C424.98,93.2,422.84,100.59,422.84,109.91z"/>
				<path class="st1" d="M593.47,117.69h-67.43c0.58,11.85,9.13,22.15,23.12,22.15c9.91,0,17.88-5.05,23.71-15.16l19.43,7.19
					c-8.36,19.04-23.12,28.57-44.5,28.57c-33.62,0-47.03-27.2-47.03-50.53c0-23.32,13.41-50.52,47.03-50.52
					c15.55,0,28.18,6.41,35.17,16.32c7,9.52,10.5,20.99,10.5,32.06V117.69z M526.62,98.64h42.17c-2.72-12.44-9.72-18.66-20.99-18.66
					C536.33,79.99,528.37,88.34,526.62,98.64z"/>
				<path class="st1" d="M628.45,158.88h-24.1V60.94h24.1v15.93c7-11.08,17.49-17.49,28.95-17.49c3.69,0,7.58,0.58,11.85,1.94
					l-4.47,22.35c-2.92-1.75-6.41-2.72-10.1-2.72c-15.35,0-26.23,13.41-26.23,43.14V158.88z"/>
			</g>
		</g>
	</g>
</g>
</svg>
