<svg width="54" height="54" viewBox="0 0 54 54" fill="none" xmlns="http://www.w3.org/2000/svg">
<path d="M41.2383 1.58203V18.457C41.2383 18.9517 41.0063 19.4189 40.6118 19.7174L34.811 24.1165L27.9555 29.315C27.6729 29.5291 27.3364 29.6367 27 29.6367C26.6636 29.6367 26.3271 29.5291 26.0445 29.315L19.189 24.1165L13.3882 19.7174C12.9938 19.4189 12.7617 18.9517 12.7617 18.457V1.58203C12.7617 0.70875 13.4705 0 14.3438 0H39.6562C40.5295 0 41.2383 0.70875 41.2383 1.58203Z" fill="#72A3FC"/>
<path d="M39.6562 0H27V29.6367C27.3364 29.6367 27.6729 29.5291 27.9555 29.315L34.811 24.1165L40.6118 19.7174C41.0062 19.4189 41.2383 18.9517 41.2383 18.457V1.58203C41.2383 0.70875 40.5295 0 39.6562 0Z" fill="#2892FC"/>
<path d="M34.8098 0V24.1165L27.9543 29.315C27.6717 29.5291 27.3352 29.6367 26.9988 29.6367C26.6623 29.6367 26.3259 29.5291 26.0432 29.315L19.1877 24.1165V0H34.8098Z" fill="#5458EA"/>
<path d="M27 0V29.6367C27.3364 29.6367 27.6729 29.5291 27.9555 29.315L34.811 24.1165V0H27Z" fill="#394BF6"/>
<path d="M27 26.4727C19.4107 26.4727 13.2363 32.647 13.2363 40.2363C13.2363 47.8256 19.4107 54 27 54C34.5893 54 40.7637 47.8256 40.7637 40.2363C40.7637 32.647 34.5893 26.4727 27 26.4727Z" fill="#FAD557"/>
<path d="M27 26.4727V54C34.5893 54 40.7637 47.8256 40.7637 40.2363C40.7637 32.647 34.5893 26.4727 27 26.4727Z" fill="#FCB12B"/>
<path d="M34.0919 38.4932C33.9212 37.9678 33.4887 37.5694 32.9509 37.4425L29.9526 36.7347L28.353 34.1018C28.066 33.6296 27.5535 33.3413 27.001 33.3413C26.4484 33.3413 25.9358 33.6296 25.649 34.1018L24.0493 36.7347L21.051 37.4425C20.5133 37.5694 20.0807 37.9677 19.91 38.4932C19.7392 39.0188 19.855 39.5953 20.2154 40.0141L22.2249 42.3492L21.9717 45.4193C21.9262 45.97 22.1714 46.5044 22.6185 46.8293C23.0655 47.1539 23.6495 47.2219 24.1593 47.0086L27.001 45.819L29.8425 47.0086C30.3521 47.2218 30.9362 47.1541 31.3833 46.8293C31.8304 46.5044 32.0755 45.97 32.0301 45.4193L31.7769 42.3492L33.7864 40.0141C34.1469 39.5953 34.2627 39.0188 34.0919 38.4932Z" fill="#FDA429"/>
<path d="M34.091 38.4932C33.9202 37.9678 33.4877 37.5694 32.9499 37.4425L29.9516 36.7347L28.352 34.1018C28.065 33.6296 27.5526 33.3413 27 33.3413V45.819L29.8415 47.0086C30.3512 47.2218 30.9352 47.1541 31.3823 46.8293C31.8294 46.5044 32.0745 45.97 32.0292 45.4193L31.7759 42.3492L33.7854 40.0141C34.1459 39.5953 34.2617 39.0188 34.091 38.4932Z" fill="#E28117"/>
</svg>
