<svg width="584" height="435" viewBox="0 0 584 435" fill="none" xmlns="http://www.w3.org/2000/svg">
<path d="M583.799 382.271H0V382.563H583.799V382.271Z" fill="#E0E0E0"/>
<path d="M505.804 400.579H453.426V400.871H505.804V400.579Z" fill="#E0E0E0"/>
<path d="M445.742 400.579H435.596V400.871H445.742V400.579Z" fill="#E0E0E0"/>
<path d="M349.486 396.551H326.881V396.843H349.486V396.551Z" fill="#E0E0E0"/>
<path d="M144.923 396.399H94.4941V396.691H144.923V396.399Z" fill="#E0E0E0"/>
<path d="M84.1018 396.399H76.7109V396.691H84.1018V396.399Z" fill="#E0E0E0"/>
<path d="M330.406 389.487H221.026V389.779H330.406V389.487Z" fill="#E0E0E0"/>
<path d="M276.72 330.196H51.2691C49.5029 330.193 47.8101 329.49 46.5624 328.24C45.3146 326.99 44.6138 325.296 44.6138 323.529V6.6086C44.6291 4.85256 45.3367 3.1735 46.5829 1.93613C47.829 0.698758 49.513 0.00300818 51.2691 0H276.72C278.489 0 280.184 0.702412 281.435 1.95271C282.685 3.20301 283.387 4.89879 283.387 6.66698V323.529C283.387 325.298 282.685 326.993 281.435 328.244C280.184 329.494 278.489 330.196 276.72 330.196ZM51.2691 0.23352C49.5803 0.236613 47.9618 0.909634 46.7688 2.10486C45.5757 3.30008 44.9057 4.91984 44.9057 6.6086V323.529C44.9057 325.218 45.5757 326.838 46.7688 328.033C47.9618 329.228 49.5803 329.901 51.2691 329.905H276.72C278.41 329.901 280.03 329.229 281.225 328.034C282.42 326.839 283.092 325.219 283.095 323.529V6.6086C283.092 4.91877 282.42 3.29904 281.225 2.10415C280.03 0.909255 278.41 0.236607 276.72 0.23352H51.2691Z" fill="#E0E0E0"/>
<path d="M529.283 330.196H303.82C302.053 330.193 300.359 329.49 299.109 328.24C297.859 326.991 297.156 325.297 297.153 323.529V6.6086C297.171 4.8515 297.881 3.17245 299.129 1.9354C300.377 0.69835 302.063 0.00297538 303.82 0H529.283C531.037 0.00607675 532.718 0.703184 533.961 1.94023C535.205 3.17727 535.911 4.85458 535.926 6.6086V323.529C535.926 325.294 535.227 326.986 533.982 328.235C532.737 329.485 531.047 330.19 529.283 330.196ZM303.82 0.23352C302.13 0.236607 300.51 0.909255 299.315 2.10415C298.12 3.29904 297.448 4.91877 297.445 6.6086V323.529C297.448 325.219 298.12 326.839 299.315 328.034C300.51 329.229 302.13 329.901 303.82 329.905H529.283C530.973 329.901 532.592 329.229 533.787 328.034C534.982 326.839 535.655 325.219 535.658 323.529V6.6086C535.655 4.91877 534.982 3.29904 533.787 2.10415C532.592 0.909255 530.973 0.236607 529.283 0.23352H303.82Z" fill="#E0E0E0"/>
<path d="M274.443 73.687H134.845V382.411H274.443V73.687Z" fill="#E6E6E6"/>
<path d="M274.444 73.687H141.467V382.411H274.444V73.687Z" fill="#F0F0F0"/>
<path d="M267.437 375.406V80.6929L148.471 80.6929V375.406H267.437Z" fill="#EBEBEB"/>
<path d="M267.437 375.417V80.7042H265.616V375.417H267.437Z" fill="#E6E6E6"/>
<path d="M251.547 221.26C254.842 221.26 257.513 218.589 257.513 215.294C257.513 211.998 254.842 209.327 251.547 209.327C248.251 209.327 245.58 211.998 245.58 215.294C245.58 218.589 248.251 221.26 251.547 221.26Z" fill="#E6E6E6"/>
<path d="M253.882 220.022C257.178 220.022 259.849 217.351 259.849 214.056C259.849 210.761 257.178 208.09 253.882 208.09C250.587 208.09 247.916 210.761 247.916 214.056C247.916 217.351 250.587 220.022 253.882 220.022Z" fill="#FAFAFA"/>
<path d="M494.198 35.6818H335.755V272.821H494.198V35.6818Z" fill="#E0E0E0"/>
<path d="M497.711 35.6818H339.269V272.821H497.711V35.6818Z" fill="#F0F0F0"/>
<path d="M491.395 265.722V42.7808L345.597 42.7808V265.722H491.395Z" fill="#FAFAFA"/>
<path d="M491.395 265.722V42.7808H488.733V265.722H491.395Z" fill="#E0E0E0"/>
<path d="M495.096 112.288H341.884V121.815H495.096V112.288Z" fill="#F0F0F0"/>
<path d="M504.602 23.9355H328.867C328.61 23.9355 328.363 24.0377 328.181 24.2194C328 24.4011 327.897 24.6476 327.897 24.9047C327.897 25.1628 327.999 25.4105 328.181 25.5941C328.362 25.7777 328.608 25.8824 328.867 25.8854H504.602C504.861 25.8824 505.109 25.7781 505.292 25.5948C505.475 25.4115 505.579 25.1638 505.582 24.9047C505.579 24.6466 505.475 24.4001 505.291 24.2187C505.107 24.0373 504.86 23.9355 504.602 23.9355Z" fill="#E0E0E0"/>
<path d="M510.438 24.9051C510.441 25.8685 510.157 26.811 509.624 27.6132C509.09 28.4155 508.33 29.0413 507.441 29.4116C506.551 29.7819 505.572 29.88 504.627 29.6935C503.682 29.5069 502.813 29.0441 502.131 28.3637C501.449 27.6832 500.984 26.8157 500.795 25.8709C500.606 24.9261 500.702 23.9466 501.07 23.0562C501.438 22.1658 502.062 21.4047 502.863 20.8692C503.664 20.3337 504.606 20.0479 505.57 20.0479C506.859 20.0478 508.095 20.5592 509.008 21.4698C509.921 22.3804 510.435 23.6158 510.438 24.9051Z" fill="#E0E0E0"/>
<path d="M337.063 30.3573C336.715 30.3543 336.382 30.2139 336.137 29.9668C335.892 29.7197 335.755 29.3859 335.755 29.038V26.224C335.755 25.8761 335.892 25.5423 336.137 25.2952C336.382 25.0481 336.715 24.9077 337.063 24.9047C337.412 24.9077 337.745 25.0477 337.992 25.2945C338.239 25.5412 338.379 25.8751 338.382 26.224V29.038C338.379 29.3869 338.239 29.7208 337.992 29.9675C337.745 30.2143 337.412 30.3543 337.063 30.3573Z" fill="#E0E0E0"/>
<path d="M489.935 30.3573C489.586 30.3543 489.252 30.2143 489.005 29.9675C488.758 29.7208 488.618 29.3869 488.615 29.038V26.224C488.618 25.8751 488.758 25.5412 489.005 25.2945C489.252 25.0477 489.586 24.9077 489.935 24.9047C490.282 24.9077 490.615 25.0481 490.86 25.2952C491.105 25.5423 491.242 25.8761 491.242 26.224V29.038C491.242 29.3859 491.105 29.7197 490.86 29.9668C490.615 30.2139 490.282 30.3543 489.935 30.3573Z" fill="#E0E0E0"/>
<path opacity="0.4" d="M504.297 24.9047H341.884V93.0106H504.297V24.9047Z" fill="#E0E0E0"/>
<path d="M357.577 24.9051C357.579 25.8685 357.295 26.811 356.762 27.6132C356.228 28.4155 355.469 29.0413 354.579 29.4116C353.69 29.7819 352.71 29.88 351.765 29.6935C350.82 29.5069 349.951 29.0441 349.269 28.3637C348.587 27.6832 348.122 26.8157 347.933 25.8709C347.744 24.9261 347.84 23.9466 348.208 23.0562C348.577 22.1658 349.201 21.4047 350.002 20.8692C350.802 20.3337 351.744 20.0479 352.708 20.0479C353.997 20.0478 355.234 20.5592 356.146 21.4698C357.059 22.3804 357.574 23.6158 357.577 24.9051Z" fill="#E0E0E0"/>
<path d="M360.507 308.538H329.239V377.881H360.507V308.538Z" fill="#E6E6E6"/>
<path d="M489.479 377.881H335.251V382.271H489.479V377.881Z" fill="#E6E6E6"/>
<path d="M360.507 377.881H495.469V308.538H360.507V377.881Z" fill="#F0F0F0"/>
<path d="M372.801 339.818H483.174V317.073H372.801V339.818Z" fill="#E6E6E6"/>
<path d="M372.801 369.334H483.174V346.589H372.801V369.334Z" fill="#E6E6E6"/>
<path d="M442.065 326.88H413.937C413.176 326.88 412.56 327.497 412.56 328.258V328.62C412.56 329.381 413.176 329.998 413.937 329.998H442.065C442.826 329.998 443.443 329.381 443.443 328.62V328.258C443.443 327.497 442.826 326.88 442.065 326.88Z" fill="#F0F0F0"/>
<path d="M442.065 356.409H413.937C413.176 356.409 412.56 357.026 412.56 357.787V358.149C412.56 358.91 413.176 359.526 413.937 359.526H442.065C442.826 359.526 443.443 358.91 443.443 358.149V357.787C443.443 357.026 442.826 356.409 442.065 356.409Z" fill="#F0F0F0"/>
<path d="M399.459 298.309C403.264 298.309 406.348 295.225 406.348 291.421C406.348 287.616 403.264 284.532 399.459 284.532C395.655 284.532 392.57 287.616 392.57 291.421C392.57 295.225 395.655 298.309 399.459 298.309Z" fill="#F0F0F0"/>
<path d="M410.294 297.013C414.099 297.013 417.183 293.929 417.183 290.124C417.183 286.32 414.099 283.236 410.294 283.236C406.489 283.236 403.405 286.32 403.405 290.124C403.405 293.929 406.489 297.013 410.294 297.013Z" fill="#F0F0F0"/>
<path d="M450.517 293.312C450.517 294.675 450.113 296.007 449.356 297.139C448.599 298.272 447.523 299.155 446.264 299.677C445.006 300.198 443.62 300.334 442.284 300.069C440.948 299.803 439.72 299.147 438.757 298.183C437.794 297.22 437.137 295.992 436.872 294.656C436.606 293.32 436.742 291.935 437.264 290.676C437.785 289.417 438.668 288.341 439.801 287.584C440.934 286.827 442.266 286.423 443.628 286.423C445.455 286.423 447.207 287.149 448.499 288.441C449.791 289.733 450.517 291.485 450.517 293.312Z" fill="#F0F0F0"/>
<path d="M432.735 296.488C432.737 297.854 432.334 299.189 431.576 300.326C430.819 301.462 429.742 302.349 428.48 302.872C427.219 303.396 425.83 303.534 424.491 303.268C423.151 303.002 421.92 302.345 420.955 301.379C419.989 300.413 419.332 299.182 419.066 297.843C418.8 296.503 418.937 295.115 419.461 293.853C419.985 292.592 420.871 291.514 422.008 290.757C423.144 290 424.48 289.597 425.846 289.599C427.673 289.599 429.425 290.325 430.717 291.617C432.009 292.909 432.735 294.661 432.735 296.488Z" fill="#F0F0F0"/>
<path d="M379.469 292.682C379.469 292.682 380.636 308.537 423.37 308.537C466.104 308.537 467.272 292.682 467.272 292.682H379.469Z" fill="#E6E6E6"/>
<path d="M72.1579 284.111H50.8726V376.421H72.1579V284.111Z" fill="#E6E6E6"/>
<path d="M159.925 376.422H54.9585V382.271H159.925V376.422Z" fill="#E6E6E6"/>
<path d="M72.1447 376.422H164V284.112H72.1447L72.1447 376.422Z" fill="#F0F0F0"/>
<path d="M80.5286 325.76H155.64V295.484H80.5286V325.76Z" fill="#E6E6E6"/>
<path d="M80.5286 365.061H155.64V334.785H80.5286V365.061Z" fill="#E6E6E6"/>
<path d="M126.509 312.694H109.649C109.373 312.694 109.1 312.639 108.845 312.533C108.591 312.426 108.36 312.27 108.167 312.073C107.973 311.877 107.821 311.643 107.719 311.387C107.616 311.131 107.566 310.857 107.571 310.581C107.571 310.03 107.79 309.501 108.179 309.111C108.569 308.722 109.098 308.503 109.649 308.503H126.509C127.06 308.503 127.589 308.722 127.979 309.111C128.368 309.501 128.587 310.03 128.587 310.581C128.592 310.857 128.542 311.131 128.439 311.387C128.337 311.643 128.185 311.877 127.991 312.073C127.798 312.27 127.567 312.426 127.313 312.533C127.058 312.639 126.785 312.694 126.509 312.694Z" fill="#F0F0F0"/>
<path d="M126.51 351.996H109.65C109.098 351.996 108.57 351.777 108.18 351.387C107.79 350.997 107.571 350.469 107.571 349.917C107.574 349.368 107.795 348.843 108.184 348.455C108.574 348.068 109.1 347.851 109.65 347.851H126.51C127.059 347.851 127.586 348.068 127.975 348.455C128.365 348.843 128.585 349.368 128.588 349.917C128.588 350.469 128.369 350.997 127.979 351.387C127.59 351.777 127.061 351.996 126.51 351.996Z" fill="#F0F0F0"/>
<path d="M113.676 266.364C113.676 266.364 96.1625 236.111 120.484 212.024C120.484 212.024 126.835 216.157 126.742 221.727C126.648 227.296 119.935 228.732 121.371 233.403C122.807 238.073 129.147 242.615 124.99 246.456C120.834 250.298 125.656 253.719 125.376 258.424C125.096 263.13 113.676 266.364 113.676 266.364Z" fill="#F0F0F0"/>
<path d="M88.1182 261.542C88.1182 261.542 88.702 284.111 111.085 284.111C133.468 284.111 134.04 261.542 134.04 261.542H88.1182Z" fill="#E6E6E6"/>
<path d="M115.009 269.131C115.009 269.131 122.132 234.885 91.4239 219.707C91.4239 219.707 86.7535 225.638 88.5516 230.892C90.3497 236.146 97.2035 235.364 97.3086 240.233C97.4137 245.102 92.825 251.419 97.9858 253.754C103.147 256.089 99.6438 260.864 101.395 265.243C103.147 269.621 115.009 269.131 115.009 269.131Z" fill="#E6E6E6"/>
<path d="M104.418 100.285H69.3784V188.427H104.418V100.285Z" fill="#E0E0E0"/>
<path d="M111.506 100.285H74.3179V188.427H111.506V100.285Z" fill="#F0F0F0"/>
<path d="M105.844 182.764V105.948H79.9815V182.764H105.844Z" fill="#FAFAFA"/>
<path d="M291.899 435C416.928 435 518.284 429.083 518.284 421.783C518.284 414.483 416.928 408.566 291.899 408.566C166.87 408.566 65.5137 414.483 65.5137 421.783C65.5137 429.083 166.87 435 291.899 435Z" fill="#F5F5F5"/>
<path d="M428.112 163.919C427.925 167.2 427.528 170.213 427.085 173.342C426.641 176.471 425.999 179.507 425.322 182.566C423.932 188.807 421.869 194.879 419.168 200.675C418.215 202.498 416.905 204.11 415.315 205.416C414.01 206.526 412.62 207.533 411.159 208.428C408.432 210.099 405.587 211.57 402.647 212.83C396.941 215.276 391.054 217.279 385.04 218.82L383.592 214.488C386.277 213.32 389.033 212.024 391.695 210.705C394.357 209.386 397.019 208.054 399.565 206.607C402.081 205.228 404.51 203.695 406.839 202.018C407.911 201.249 408.926 200.402 409.874 199.484C410.6 198.82 411.197 198.029 411.637 197.149C412.704 194.538 413.62 191.867 414.381 189.151C415.129 186.361 415.817 183.547 416.401 180.686C416.985 177.825 417.452 174.93 417.872 172.022C418.293 169.115 418.631 166.184 418.888 163.382L428.112 163.919Z" fill="#E58A7B"/>
<path d="M421.82 152.955C418.095 153.901 415.491 169.232 415.491 169.232L425.754 176.237C425.754 176.237 435.597 160.778 432.76 156.692C429.748 152.336 427.261 151.519 421.82 152.955Z" fill="#0253B3"/>
<path opacity="0.5" d="M421.82 152.955C418.095 153.901 415.491 169.232 415.491 169.232L425.754 176.237C425.754 176.237 435.597 160.778 432.76 156.692C429.748 152.336 427.261 151.519 421.82 152.955Z" fill="black"/>
<path d="M422.157 156.33L419.296 171.777L425.064 175.689L422.157 156.33Z" fill="#0253B3"/>
<path opacity="0.7" d="M422.157 156.33L419.296 171.777L425.064 175.689L422.157 156.33Z" fill="black"/>
<path d="M385.705 214.254L379.295 207.762L378.454 216.916C378.454 216.916 383.253 220.162 386.627 218.422L385.705 214.254Z" fill="#E58A7B"/>
<path d="M371.751 206.794L371.459 214.488L378.453 216.917L379.294 207.763L371.751 206.794Z" fill="#E58A7B"/>
<path d="M441.972 410.854H432.935L432.328 389.931H441.365L441.972 410.854Z" fill="#E58A7B"/>
<path d="M521.707 368.891L514.818 374.74L499.056 360.671L505.944 354.821L521.707 368.891Z" fill="#E58A7B"/>
<path d="M512.939 374.04L519.582 366.392C519.693 366.257 519.849 366.167 520.022 366.141C520.195 366.115 520.371 366.155 520.516 366.252L527.324 370.666C527.491 370.782 527.632 370.933 527.738 371.109C527.843 371.284 527.91 371.479 527.934 371.682C527.958 371.885 527.939 372.091 527.878 372.286C527.818 372.481 527.716 372.661 527.58 372.814C525.245 375.441 523.926 376.585 520.995 379.948C519.185 382.015 516.757 385.226 514.27 388.121C511.783 391.017 508.817 388.658 509.599 387.245C513.102 380.917 512.262 378.687 512.32 375.57C512.333 375.001 512.553 374.458 512.939 374.04Z" fill="#263238"/>
<path d="M432.619 409.827H442.777C442.952 409.825 443.122 409.887 443.255 410C443.388 410.114 443.475 410.272 443.501 410.446L444.668 418.479C444.69 418.681 444.668 418.886 444.605 419.079C444.542 419.273 444.438 419.451 444.302 419.602C444.165 419.753 443.998 419.873 443.812 419.956C443.626 420.038 443.424 420.079 443.22 420.078C439.718 420.078 437.966 419.81 433.506 419.81C430.762 419.81 425.076 420.102 421.293 420.102C417.51 420.102 417.288 416.342 418.876 416.003C425.952 414.486 428.742 412.384 431.124 410.376C431.546 410.029 432.073 409.836 432.619 409.827Z" fill="#263238"/>
<path d="M432.328 389.942L432.643 400.731H441.68L441.377 389.942H432.328Z" fill="#CF6F64"/>
<path d="M505.956 354.821L499.067 360.671L507.194 367.922L514.083 362.072L505.956 354.821Z" fill="#CF6F64"/>
<path d="M421.819 152.955C421.819 152.955 417.522 154.473 426.139 207.494H462.837C462.218 192.56 462.206 183.348 469.34 152.687C464.205 151.62 459 150.929 453.764 150.62C448.214 150.217 442.641 150.217 437.091 150.62C429.934 151.251 421.819 152.955 421.819 152.955Z" fill="#0253B3"/>
<path opacity="0.5" d="M421.819 152.955C421.819 152.955 417.522 154.473 426.139 207.494H462.837C462.218 192.56 462.206 183.348 469.34 152.687C464.205 151.62 459 150.929 453.764 150.62C448.214 150.217 442.641 150.217 437.091 150.62C429.934 151.251 421.819 152.955 421.819 152.955Z" fill="black"/>
<path d="M442.52 154.427L445.836 161.199C445.836 161.199 459.742 156.949 457.921 150.83L453.25 150.293L442.52 154.427Z" fill="#0253B3"/>
<path opacity="0.6" d="M442.52 154.427L445.836 161.199C445.836 161.199 459.742 156.949 457.921 150.83L453.25 150.293L442.52 154.427Z" fill="#FAFAFA"/>
<path d="M442.263 153.796L437.593 160.708C437.593 160.708 427.692 156.412 434.522 150.632L437.43 150.293L442.263 153.796Z" fill="#0253B3"/>
<path opacity="0.6" d="M442.263 153.796L437.593 160.708C437.593 160.708 427.692 156.412 434.522 150.632L437.43 150.293L442.263 153.796Z" fill="#FAFAFA"/>
<path d="M457.174 103.916C461.459 99.7948 457.349 80.4244 468.628 86.8345C482.966 95.0077 492.225 84.3125 487.438 80.2493C497.503 80.9615 496.522 92.4156 492.33 98.5689C481.693 114.226 460.233 99.3395 460.105 107.291C459.976 115.242 457.174 103.916 457.174 103.916Z" fill="#263238"/>
<path d="M450.987 101.126C455.902 97.2375 472.692 100.472 461.18 116.129L450.987 101.126Z" fill="#0253B3"/>
<path opacity="0.3" d="M450.987 101.126C455.902 97.2375 472.692 100.472 461.18 116.129L450.987 101.126Z" fill="black"/>
<path d="M453.577 108.4C467.892 110.536 468.896 133.795 446.677 137.403L453.577 108.4Z" fill="#263238"/>
<path d="M452.106 131.834C451.055 137.193 450.004 147.012 453.764 150.597C453.764 150.597 452.293 156.026 442.333 156.026C431.381 156.026 437.091 150.597 437.091 150.597C443.069 149.161 442.929 144.759 441.878 140.567L452.106 131.834Z" fill="#E58A7B"/>
<path d="M447.937 135.441L441.877 140.602C442.143 141.572 442.315 142.565 442.391 143.568C444.726 143.229 447.82 140.719 448.065 138.337C448.199 137.372 448.156 136.391 447.937 135.441Z" fill="#CF6F64"/>
<path d="M429.512 125.622C424.573 119.258 418.14 102.842 437.394 101.266L429.512 125.622Z" fill="#263238"/>
<path d="M451.743 118.15C452.911 127.047 453.611 130.783 450.062 136.154C444.726 144.245 433.54 143.767 429.734 135.407C426.29 127.887 424.935 114.612 432.84 109.428C434.579 108.276 436.584 107.588 438.663 107.429C440.743 107.27 442.829 107.645 444.723 108.519C446.617 109.393 448.256 110.736 449.485 112.422C450.714 114.107 451.491 116.079 451.743 118.15Z" fill="#E58A7B"/>
<path d="M426.173 207.448C426.173 207.448 419.051 277.048 419.635 304.603C420.253 333.268 430.762 398.642 430.762 398.642H442.975C442.975 398.642 441.037 334.937 442.123 306.798C443.29 276.102 453.051 207.448 453.051 207.448H426.173Z" fill="#0253B3"/>
<path opacity="0.6" d="M426.173 207.448C426.173 207.448 419.051 277.048 419.635 304.603C420.253 333.268 430.762 398.642 430.762 398.642H442.975C442.975 398.642 441.037 334.937 442.123 306.798C443.29 276.102 453.051 207.448 453.051 207.448H426.173Z" fill="#FAFAFA"/>
<path d="M444.004 399.073H429.666L428.615 394.508L444.67 393.947L444.004 399.073Z" fill="#0253B3"/>
<path opacity="0.4" d="M444.004 399.073H429.666L428.615 394.508L444.67 393.947L444.004 399.073Z" fill="#FAFAFA"/>
<path d="M441.971 224.763C432.957 242.895 440.162 275.973 443.349 288.28C444.984 269.797 447.739 247.204 449.888 230.612C448.522 221.225 446.128 216.403 441.971 224.763Z" fill="#0253B3"/>
<path opacity="0.4" d="M441.971 224.763C432.957 242.895 440.162 275.973 443.349 288.28C444.984 269.797 447.739 247.204 449.888 230.612C448.522 221.225 446.128 216.403 441.971 224.763Z" fill="#FAFAFA"/>
<path d="M435.83 207.447C435.83 207.447 444.143 279.838 450.425 303.039C457.874 330.629 504.135 367.747 504.135 367.747L513.534 359.76C513.534 359.76 479.977 319.443 474.279 304.883C462.113 273.872 472.528 227.659 462.802 207.424L435.83 207.447Z" fill="#0253B3"/>
<path opacity="0.6" d="M435.83 207.447C435.83 207.447 444.143 279.838 450.425 303.039C457.874 330.629 504.135 367.747 504.135 367.747L513.534 359.76C513.534 359.76 479.977 319.443 474.279 304.883C462.113 273.872 472.528 227.659 462.802 207.424L435.83 207.447Z" fill="#FAFAFA"/>
<path d="M515.063 359.34L503.411 369.229L499.067 366.625L512.238 354.366L515.063 359.34Z" fill="#0253B3"/>
<path opacity="0.4" d="M515.063 359.34L503.411 369.229L499.067 366.625L512.238 354.366L515.063 359.34Z" fill="#FAFAFA"/>
<path d="M438.902 123.228C439.042 123.941 438.774 124.595 438.307 124.688C437.84 124.781 437.349 124.268 437.209 123.52C437.069 122.773 437.337 122.154 437.804 122.061C438.272 121.967 438.762 122.505 438.902 123.228Z" fill="#263238"/>
<path d="M430.844 124.816C430.984 125.528 430.716 126.182 430.249 126.276C429.781 126.369 429.291 125.855 429.151 125.108C429.011 124.361 429.268 123.742 429.735 123.649C430.202 123.555 430.681 124.092 430.844 124.816Z" fill="#263238"/>
<path d="M429.934 123.684L428.112 123.52C428.112 123.52 429.257 124.688 429.934 123.684Z" fill="#263238"/>
<path d="M433.18 125.622C432.864 127.378 432.311 129.083 431.534 130.689C431.947 130.88 432.398 130.979 432.853 130.979C433.309 130.979 433.759 130.88 434.172 130.689L433.18 125.622Z" fill="#DF5753"/>
<path d="M437.219 132.989C437.163 132.989 437.11 132.967 437.07 132.928C437.031 132.888 437.009 132.835 437.009 132.779C437.009 132.723 437.031 132.67 437.07 132.63C437.11 132.591 437.163 132.569 437.219 132.569C438.113 132.413 438.957 132.048 439.683 131.504C440.41 130.961 440.997 130.253 441.399 129.44C441.41 129.414 441.425 129.39 441.445 129.37C441.465 129.35 441.489 129.334 441.515 129.323C441.541 129.312 441.569 129.307 441.597 129.307C441.625 129.307 441.653 129.312 441.679 129.323C441.705 129.334 441.729 129.349 441.749 129.369C441.769 129.389 441.785 129.413 441.796 129.439C441.806 129.465 441.812 129.493 441.812 129.521C441.812 129.549 441.807 129.577 441.796 129.603C441.373 130.487 440.744 131.256 439.962 131.845C439.179 132.434 438.267 132.827 437.301 132.989H437.219Z" fill="#263238"/>
<path d="M429.678 112.58C429.678 112.58 437.279 124.104 451.29 125.622C451.29 125.622 465.756 112.486 456.859 103.379C442.451 88.6439 425.264 107.419 429.678 112.58Z" fill="#263238"/>
<path d="M454.791 125.026C454.772 125.884 454.583 126.729 454.234 127.513C453.885 128.297 453.384 129.004 452.759 129.592C451.078 131.168 449.187 129.919 448.766 127.782C448.393 125.855 448.766 122.726 450.926 121.944C451.392 121.787 451.89 121.75 452.374 121.835C452.859 121.921 453.314 122.126 453.698 122.433C454.082 122.739 454.384 123.137 454.575 123.59C454.766 124.044 454.84 124.537 454.791 125.026Z" fill="#E58A7B"/>
<path d="M440.746 120.146C440.639 120.147 440.536 120.11 440.454 120.041C440.063 119.672 439.591 119.401 439.076 119.249C438.561 119.097 438.017 119.068 437.489 119.165C437.434 119.181 437.377 119.186 437.321 119.179C437.265 119.172 437.21 119.154 437.161 119.125C437.112 119.097 437.069 119.059 437.035 119.014C437.001 118.968 436.977 118.917 436.963 118.862C436.935 118.752 436.95 118.635 437.007 118.537C437.064 118.438 437.157 118.366 437.267 118.336C437.933 118.2 438.622 118.225 439.276 118.41C439.93 118.595 440.53 118.934 441.026 119.399C441.106 119.48 441.151 119.589 441.151 119.702C441.151 119.816 441.106 119.925 441.026 120.006C440.955 120.087 440.854 120.137 440.746 120.146Z" fill="#263238"/>
<path d="M426.336 121.816C426.283 121.828 426.227 121.828 426.173 121.816C426.12 121.795 426.072 121.764 426.031 121.725C425.991 121.685 425.958 121.638 425.937 121.585C425.915 121.533 425.904 121.477 425.904 121.42C425.905 121.363 425.917 121.307 425.939 121.255C426.185 120.622 426.58 120.056 427.09 119.607C427.6 119.158 428.211 118.838 428.87 118.675C428.925 118.663 428.981 118.662 429.036 118.673C429.091 118.684 429.143 118.706 429.189 118.738C429.235 118.77 429.274 118.81 429.303 118.858C429.333 118.905 429.352 118.958 429.361 119.013C429.372 119.069 429.373 119.126 429.362 119.181C429.351 119.237 429.33 119.29 429.298 119.336C429.266 119.383 429.226 119.423 429.178 119.454C429.131 119.485 429.078 119.506 429.022 119.515C428.497 119.65 428.011 119.908 427.605 120.267C427.199 120.627 426.884 121.077 426.687 121.582C426.654 121.648 426.604 121.705 426.543 121.746C426.481 121.787 426.41 121.811 426.336 121.816Z" fill="#263238"/>
<path d="M482.218 197.71V196.67C482.218 195.269 482.02 193.927 481.88 192.572C481.172 187.328 480.056 182.148 478.54 177.078C477.074 172.057 475.328 167.122 473.309 162.296L464.704 165.799C466.444 170.306 468.09 175.058 469.596 179.729C470.32 182.064 471.009 184.399 471.605 186.734C472.2 189.069 472.772 191.405 473.181 193.74L473.426 195.293C472.621 195.024 471.792 194.732 470.951 194.382C466.537 192.584 462.03 190.249 457.582 188.007L455.001 191.778C458.96 195.216 463.228 198.281 467.752 200.932C468.967 201.636 470.227 202.26 471.523 202.8C472.25 203.116 472.999 203.377 473.765 203.583C474.221 203.712 474.685 203.809 475.154 203.875C475.778 203.954 476.41 203.954 477.034 203.875C478.064 203.784 479.049 203.412 479.883 202.8C480.92 202.029 481.652 200.917 481.95 199.659C482.126 199.025 482.217 198.369 482.218 197.71ZM475.936 195.97H476.147C476.275 195.958 476.112 195.982 475.878 195.97H475.936Z" fill="#E58A7B"/>
<path d="M469.374 152.64C473.052 153.808 477.466 166.418 477.466 166.418L463.209 176.622C463.209 176.622 458.002 166.056 459.555 161.304C461.119 156.353 465.148 151.367 469.374 152.64Z" fill="#0253B3"/>
<path opacity="0.5" d="M469.374 152.64C473.052 153.808 477.466 166.418 477.466 166.418L463.209 176.622C463.209 176.622 458.002 166.056 459.555 161.304C461.119 156.353 465.148 151.367 469.374 152.64Z" fill="black"/>
<path d="M510.462 378.395C510.276 378.39 510.094 378.343 509.928 378.258C509.762 378.174 509.618 378.053 509.505 377.905C509.416 377.812 509.353 377.697 509.325 377.571C509.296 377.446 509.302 377.315 509.341 377.193C509.668 376.083 512.844 375.184 513.159 375.091C513.201 375.079 513.245 375.079 513.287 375.091C513.328 375.103 513.365 375.128 513.393 375.161C513.413 375.197 513.424 375.237 513.424 375.278C513.424 375.319 513.413 375.359 513.393 375.395C512.832 376.457 511.711 378.255 510.579 378.395H510.462ZM512.797 375.651C511.548 376.048 509.937 376.737 509.762 377.321C509.743 377.374 509.741 377.431 509.756 377.485C509.77 377.54 509.801 377.588 509.843 377.625C509.923 377.74 510.032 377.832 510.16 377.892C510.287 377.951 510.427 377.976 510.567 377.963C511.163 377.893 511.98 377.041 512.786 375.651H512.797Z" fill="#0253B3"/>
<path d="M511.794 375.686C510.86 375.783 509.925 375.52 509.179 374.951C509.07 374.819 509.011 374.654 509.011 374.484C509.011 374.313 509.07 374.148 509.179 374.017C509.271 373.883 509.391 373.771 509.53 373.687C509.668 373.602 509.823 373.548 509.984 373.526C511.269 373.374 513.253 375.056 513.335 375.138C513.365 375.16 513.388 375.191 513.401 375.226C513.413 375.261 513.415 375.3 513.405 375.336C513.4 375.374 513.384 375.409 513.359 375.438C513.334 375.467 513.302 375.489 513.265 375.5C512.787 375.633 512.291 375.696 511.794 375.686ZM510.206 373.935H510.066C509.962 373.947 509.863 373.981 509.774 374.036C509.685 374.09 509.61 374.163 509.552 374.25C509.4 374.472 509.459 374.6 509.552 374.682C509.937 375.184 511.712 375.371 512.798 375.184C512.07 374.55 511.188 374.119 510.241 373.935H510.206Z" fill="#0253B3"/>
<path d="M429.234 411.391C428.46 411.462 427.685 411.264 427.039 410.831C426.894 410.703 426.783 410.541 426.715 410.36C426.648 410.179 426.627 409.983 426.654 409.792C426.661 409.674 426.698 409.559 426.761 409.459C426.824 409.359 426.912 409.277 427.016 409.22C428.125 408.624 431.686 410.457 432.13 410.667C432.17 410.688 432.202 410.721 432.223 410.76C432.243 410.8 432.252 410.845 432.247 410.889C432.242 410.932 432.224 410.973 432.194 411.004C432.165 411.036 432.126 411.057 432.083 411.064C431.147 411.267 430.192 411.376 429.234 411.391ZM427.623 409.523C427.486 409.515 427.349 409.543 427.226 409.605C427.184 409.625 427.149 409.656 427.124 409.696C427.099 409.735 427.086 409.78 427.086 409.827C427.063 409.953 427.074 410.083 427.117 410.204C427.16 410.325 427.234 410.432 427.331 410.516C427.88 411.006 429.363 411.099 431.371 410.761C430.201 410.139 428.934 409.72 427.623 409.523Z" fill="#0253B3"/>
<path d="M432.012 411.076H431.919C430.845 410.586 428.719 408.648 428.883 407.573C428.883 407.328 429.093 407.025 429.689 406.966C429.899 406.943 430.111 406.965 430.312 407.029C430.513 407.093 430.699 407.199 430.856 407.34C432.024 408.286 432.211 410.714 432.211 410.843C432.217 410.878 432.212 410.915 432.197 410.948C432.183 410.981 432.159 411.01 432.129 411.03C432.096 411.057 432.055 411.074 432.012 411.076ZM429.864 407.41H429.735C429.338 407.41 429.315 407.597 429.303 407.655C429.21 408.262 430.646 409.804 431.744 410.469C431.662 409.438 431.253 408.46 430.576 407.679C430.381 407.517 430.14 407.422 429.887 407.41H429.864Z" fill="#0253B3"/>
<path d="M458.867 189.046L455.831 179.763L450.997 187.575C450.997 187.575 453.846 192.63 457.606 192.548L458.867 189.046Z" fill="#E58A7B"/>
<path d="M449.492 175.537L445.802 182.297L450.963 187.575L455.797 179.764L449.492 175.537Z" fill="#E58A7B"/>
<path d="M438.013 122.096L436.204 121.932C436.204 121.932 437.348 123.1 438.013 122.096Z" fill="#263238"/>
<path d="M463.385 205.287L464.331 208.58C464.459 208.825 464.156 209.093 463.724 209.093H425.964C425.625 209.093 425.357 208.93 425.333 208.72L425.006 205.497C425.006 205.264 425.263 205.077 425.625 205.077H462.79C462.899 205.06 463.01 205.07 463.114 205.107C463.218 205.144 463.311 205.206 463.385 205.287Z" fill="#263238"/>
<path d="M458.399 209.444H459.391C459.59 209.444 459.742 209.339 459.73 209.222L459.263 204.949C459.263 204.82 459.076 204.727 458.878 204.727H457.885C457.687 204.727 457.535 204.82 457.547 204.949L458.014 209.222C458.025 209.339 458.2 209.444 458.399 209.444Z" fill="#0253B3"/>
<path opacity="0.6" d="M458.399 209.444H459.391C459.59 209.444 459.742 209.339 459.73 209.222L459.263 204.949C459.263 204.82 459.076 204.727 458.878 204.727H457.885C457.687 204.727 457.535 204.82 457.547 204.949L458.014 209.222C458.025 209.339 458.2 209.444 458.399 209.444Z" fill="#FAFAFA"/>
<path d="M428.754 209.444H429.747C429.945 209.444 430.097 209.339 430.085 209.222L429.618 204.949C429.618 204.82 429.432 204.727 429.233 204.727H428.241C428.042 204.727 427.89 204.82 427.902 204.949L428.369 209.222C428.381 209.339 428.509 209.444 428.754 209.444Z" fill="#0253B3"/>
<path opacity="0.6" d="M428.754 209.444H429.747C429.945 209.444 430.097 209.339 430.085 209.222L429.618 204.949C429.618 204.82 429.432 204.727 429.233 204.727H428.241C428.042 204.727 427.89 204.82 427.902 204.949L428.369 209.222C428.381 209.339 428.509 209.444 428.754 209.444Z" fill="#FAFAFA"/>
<path d="M443.571 209.444H444.575C444.774 209.444 444.926 209.339 444.902 209.222L444.435 204.949C444.435 204.82 444.248 204.727 444.05 204.727H443.057C442.859 204.727 442.707 204.82 442.719 204.949L443.186 209.222C443.218 209.296 443.273 209.357 443.342 209.397C443.411 209.437 443.492 209.453 443.571 209.444Z" fill="#0253B3"/>
<path opacity="0.6" d="M443.571 209.444H444.575C444.774 209.444 444.926 209.339 444.902 209.222L444.435 204.949C444.435 204.82 444.248 204.727 444.05 204.727H443.057C442.859 204.727 442.707 204.82 442.719 204.949L443.186 209.222C443.218 209.296 443.273 209.357 443.342 209.397C443.411 209.437 443.492 209.453 443.571 209.444Z" fill="#FAFAFA"/>
<path d="M326.461 421.783H403.697C405.499 421.804 407.285 421.448 408.941 420.738C410.597 420.028 412.086 418.98 413.313 417.661C414.54 416.341 415.478 414.78 416.066 413.077C416.654 411.374 416.879 409.567 416.728 407.772L398.256 143.614C397.936 139.837 396.225 136.313 393.456 133.725C390.686 131.136 387.055 129.668 383.264 129.603H306.028C304.226 129.582 302.44 129.938 300.784 130.648C299.128 131.358 297.639 132.406 296.412 133.725C295.185 135.045 294.248 136.606 293.66 138.309C293.071 140.012 292.846 141.819 292.997 143.614L311.469 407.783C311.792 411.558 313.504 415.08 316.273 417.666C319.042 420.252 322.672 421.719 326.461 421.783Z" fill="#0253B3"/>
<path opacity="0.2" d="M326.461 421.783H403.697C405.499 421.804 407.285 421.448 408.941 420.738C410.597 420.028 412.086 418.98 413.313 417.661C414.54 416.341 415.478 414.78 416.066 413.077C416.654 411.374 416.879 409.567 416.728 407.772L398.256 143.614C397.936 139.837 396.225 136.313 393.456 133.725C390.686 131.136 387.055 129.668 383.264 129.603H306.028C304.226 129.582 302.44 129.938 300.784 130.648C299.128 131.358 297.639 132.406 296.412 133.725C295.185 135.045 294.248 136.606 293.66 138.309C293.071 140.012 292.846 141.819 292.997 143.614L311.469 407.783C311.792 411.558 313.504 415.08 316.273 417.666C319.042 420.252 322.672 421.719 326.461 421.783Z" fill="black"/>
<path d="M285.662 225.069L284.498 225.15L285.784 243.553L286.949 243.472L285.662 225.069Z" fill="#0253B3"/>
<path opacity="0.5" d="M285.662 225.069L284.498 225.15L285.784 243.553L286.949 243.472L285.662 225.069Z" fill="black"/>
<path d="M316.35 421.783H393.575C395.376 421.804 397.162 421.448 398.818 420.738C400.474 420.028 401.964 418.98 403.191 417.661C404.417 416.341 405.355 414.78 405.943 413.077C406.531 411.374 406.757 409.567 406.605 407.772L388.134 143.614C387.813 139.837 386.103 136.313 383.333 133.725C380.564 131.136 376.932 129.668 373.142 129.603H295.917C294.115 129.582 292.329 129.938 290.673 130.648C289.017 131.358 287.528 132.406 286.301 133.725C285.074 135.045 284.137 136.606 283.549 138.309C282.961 140.012 282.735 141.819 282.887 143.614L301.358 407.772C301.678 411.549 303.389 415.073 306.159 417.661C308.928 420.25 312.56 421.718 316.35 421.783Z" fill="#0253B3"/>
<path opacity="0.5" d="M316.35 421.783H393.575C395.376 421.804 397.162 421.448 398.818 420.738C400.474 420.028 401.964 418.98 403.191 417.661C404.417 416.341 405.355 414.78 405.943 413.077C406.531 411.374 406.757 409.567 406.605 407.772L388.134 143.614C387.813 139.837 386.103 136.313 383.333 133.725C380.564 131.136 376.932 129.668 373.142 129.603H295.917C294.115 129.582 292.329 129.938 290.673 130.648C289.017 131.358 287.528 132.406 286.301 133.725C285.074 135.045 284.137 136.606 283.549 138.309C282.961 140.012 282.735 141.819 282.887 143.614L301.358 407.772C301.678 411.549 303.389 415.073 306.159 417.661C308.928 420.25 312.56 421.718 316.35 421.783Z" fill="black"/>
<path d="M330.688 213.741H344.979C345.316 213.754 345.651 213.695 345.962 213.568C346.274 213.44 346.554 213.246 346.783 213C347.013 212.754 347.187 212.461 347.292 212.141C347.398 211.822 347.434 211.483 347.396 211.148L343.975 162.226C343.917 161.526 343.6 160.872 343.087 160.393C342.573 159.914 341.899 159.643 341.196 159.634H326.928C326.593 159.622 326.259 159.682 325.949 159.811C325.639 159.939 325.36 160.133 325.132 160.379C324.904 160.625 324.731 160.918 324.626 161.236C324.521 161.555 324.486 161.893 324.523 162.226L327.944 211.148C328.002 211.843 328.313 212.491 328.82 212.97C329.326 213.448 329.992 213.723 330.688 213.741Z" fill="#0253B3"/>
<path opacity="0.2" d="M330.688 213.741H344.979C345.316 213.754 345.651 213.695 345.962 213.568C346.274 213.44 346.554 213.246 346.783 213C347.013 212.754 347.187 212.461 347.292 212.141C347.398 211.822 347.434 211.483 347.396 211.148L343.975 162.226C343.917 161.526 343.6 160.872 343.087 160.393C342.573 159.914 341.899 159.643 341.196 159.634H326.928C326.593 159.622 326.259 159.682 325.949 159.811C325.639 159.939 325.36 160.133 325.132 160.379C324.904 160.625 324.731 160.918 324.626 161.236C324.521 161.555 324.486 161.893 324.523 162.226L327.944 211.148C328.002 211.843 328.313 212.491 328.82 212.97C329.326 213.448 329.992 213.723 330.688 213.741Z" fill="black"/>
<path d="M243.153 421.783H165.916C164.114 421.804 162.328 421.448 160.672 420.738C159.017 420.028 157.527 418.98 156.3 417.661C155.073 416.341 154.136 414.78 153.548 413.077C152.96 411.374 152.734 409.567 152.886 407.771L171.357 143.614C171.68 139.838 173.391 136.316 176.16 133.728C178.929 131.14 182.559 129.67 186.349 129.603H263.585C265.387 129.582 267.173 129.938 268.829 130.648C270.485 131.358 271.974 132.406 273.201 133.725C274.428 135.045 275.366 136.606 275.954 138.309C276.542 140.012 276.767 141.819 276.616 143.614L258.144 407.771C257.824 411.549 256.113 415.073 253.344 417.661C250.574 420.25 246.943 421.718 243.153 421.783Z" fill="#0253B3"/>
<path opacity="0.5" d="M243.153 421.783H165.916C164.114 421.804 162.328 421.448 160.672 420.738C159.017 420.028 157.527 418.98 156.3 417.661C155.073 416.341 154.136 414.78 153.548 413.077C152.96 411.374 152.734 409.567 152.886 407.771L171.357 143.614C171.68 139.838 173.391 136.316 176.16 133.728C178.929 131.14 182.559 129.67 186.349 129.603H263.585C265.387 129.582 267.173 129.938 268.829 130.648C270.485 131.358 271.974 132.406 273.201 133.725C274.428 135.045 275.366 136.606 275.954 138.309C276.542 140.012 276.767 141.819 276.616 143.614L258.144 407.771C257.824 411.549 256.113 415.073 253.344 417.661C250.574 420.25 246.943 421.718 243.153 421.783Z" fill="black"/>
<path d="M210.671 125.505H206.315V126.673H210.671V125.505Z" fill="#0253B3"/>
<path opacity="0.3" d="M210.671 125.505H206.315V126.673H210.671V125.505Z" fill="black"/>
<path d="M198.503 125.505H184.807V126.673H198.503V125.505Z" fill="#0253B3"/>
<path opacity="0.3" d="M198.503 125.505H184.807V126.673H198.503V125.505Z" fill="black"/>
<path d="M233.029 421.783H155.804C154.002 421.804 152.216 421.448 150.56 420.738C148.904 420.028 147.415 418.98 146.188 417.661C144.961 416.341 144.023 414.78 143.435 413.077C142.847 411.374 142.622 409.567 142.773 407.771L161.245 143.614C161.565 139.837 163.276 136.313 166.045 133.725C168.815 131.136 172.446 129.668 176.237 129.603H253.462C255.263 129.582 257.049 129.938 258.705 130.648C260.361 131.358 261.85 132.406 263.077 133.725C264.304 135.045 265.242 136.606 265.83 138.309C266.418 140.012 266.643 141.819 266.492 143.614L248.021 407.771C247.7 411.549 245.99 415.073 243.22 417.661C240.45 420.25 236.819 421.718 233.029 421.783Z" fill="#0253B3"/>
<path opacity="0.3" d="M233.029 421.783H155.804C154.002 421.804 152.216 421.448 150.56 420.738C148.904 420.028 147.415 418.98 146.188 417.661C144.961 416.341 144.023 414.78 143.435 413.077C142.847 411.374 142.622 409.567 142.773 407.771L161.245 143.614C161.565 139.837 163.276 136.313 166.045 133.725C168.815 131.136 172.446 129.668 176.237 129.603H253.462C255.263 129.582 257.049 129.938 258.705 130.648C260.361 131.358 261.85 132.406 263.077 133.725C264.304 135.045 265.242 136.606 265.83 138.309C266.418 140.012 266.643 141.819 266.492 143.614L248.021 407.771C247.7 411.549 245.99 415.073 243.22 417.661C240.45 420.25 236.819 421.718 233.029 421.783Z" fill="black"/>
<path d="M244.612 406.581H142.926C142.682 406.579 142.441 406.528 142.218 406.431C141.995 406.333 141.794 406.191 141.627 406.012C141.461 405.834 141.333 405.624 141.251 405.394C141.169 405.165 141.135 404.921 141.151 404.677L159.144 147.351C159.176 146.899 159.379 146.477 159.711 146.17C160.042 145.862 160.478 145.691 160.93 145.693H262.605C262.849 145.692 263.092 145.742 263.316 145.839C263.541 145.936 263.744 146.078 263.911 146.256C264.079 146.435 264.208 146.646 264.29 146.876C264.373 147.107 264.407 147.352 264.391 147.596L246.363 404.923C246.334 405.369 246.137 405.787 245.813 406.095C245.488 406.402 245.059 406.576 244.612 406.581Z" fill="#0253B3"/>
<path opacity="0.9" d="M244.612 406.581H142.926C142.682 406.579 142.441 406.528 142.218 406.431C141.995 406.333 141.794 406.191 141.627 406.012C141.461 405.834 141.333 405.624 141.251 405.394C141.169 405.165 141.135 404.921 141.151 404.677L159.144 147.351C159.176 146.899 159.379 146.477 159.711 146.17C160.042 145.862 160.478 145.691 160.93 145.693H262.605C262.849 145.692 263.092 145.742 263.316 145.839C263.541 145.936 263.744 146.078 263.911 146.256C264.079 146.435 264.208 146.646 264.29 146.876C264.373 147.107 264.407 147.352 264.391 147.596L246.363 404.923C246.334 405.369 246.137 405.787 245.813 406.095C245.488 406.402 245.059 406.576 244.612 406.581Z" fill="#FAFAFA"/>
<path d="M242.136 172.034H176.132C174.337 172.065 172.618 172.76 171.307 173.985C169.996 175.21 169.185 176.878 169.033 178.666L162.155 276.977C162.084 277.828 162.191 278.684 162.47 279.491C162.748 280.297 163.193 281.037 163.775 281.662C164.357 282.286 165.062 282.782 165.847 283.118C166.632 283.453 167.479 283.621 168.332 283.609H172.909L170.574 290.813C175.974 290.327 180.968 287.74 184.48 283.609H234.336C236.13 283.578 237.849 282.883 239.161 281.658C240.472 280.433 241.282 278.765 241.435 276.977L248.312 178.666C248.382 177.816 248.274 176.96 247.994 176.154C247.715 175.348 247.27 174.61 246.689 173.986C246.108 173.361 245.402 172.865 244.618 172.529C243.834 172.193 242.989 172.024 242.136 172.034Z" fill="#0253B3"/>
<path opacity="0.6" d="M242.136 172.034H176.132C174.337 172.065 172.618 172.76 171.307 173.985C169.996 175.21 169.185 176.878 169.033 178.666L162.155 276.977C162.084 277.828 162.191 278.684 162.47 279.491C162.748 280.297 163.193 281.037 163.775 281.662C164.357 282.286 165.062 282.782 165.847 283.118C166.632 283.453 167.479 283.621 168.332 283.609H172.909L170.574 290.813C175.974 290.327 180.968 287.74 184.48 283.609H234.336C236.13 283.578 237.849 282.883 239.161 281.658C240.472 280.433 241.282 278.765 241.435 276.977L248.312 178.666C248.382 177.816 248.274 176.96 247.994 176.154C247.715 175.348 247.27 174.61 246.689 173.986C246.108 173.361 245.402 172.865 244.618 172.529C243.834 172.193 242.989 172.024 242.136 172.034Z" fill="#FAFAFA"/>
<path d="M166.967 303.4H232.971C233.825 303.389 234.671 303.556 235.456 303.892C236.241 304.227 236.947 304.723 237.529 305.348C238.11 305.972 238.555 306.712 238.834 307.518C239.113 308.325 239.22 309.181 239.148 310.032L236.194 352.264C236.041 354.052 235.231 355.719 233.919 356.944C232.608 358.169 230.889 358.865 229.095 358.896H224.506L225.791 366.1C223.259 365.888 220.802 365.136 218.586 363.893C216.371 362.65 214.448 360.946 212.947 358.896H163.067C162.214 358.907 161.368 358.739 160.583 358.404C159.798 358.068 159.092 357.572 158.51 356.948C157.928 356.323 157.484 355.584 157.205 354.777C156.926 353.97 156.819 353.114 156.891 352.264L159.845 310.032C159.998 308.24 160.812 306.569 162.128 305.343C163.444 304.118 165.169 303.425 166.967 303.4Z" fill="#0253B3"/>
<path opacity="0.6" d="M166.967 303.4H232.971C233.825 303.389 234.671 303.556 235.456 303.892C236.241 304.227 236.947 304.723 237.529 305.348C238.11 305.972 238.555 306.712 238.834 307.518C239.113 308.325 239.22 309.181 239.148 310.032L236.194 352.264C236.041 354.052 235.231 355.719 233.919 356.944C232.608 358.169 230.889 358.865 229.095 358.896H224.506L225.791 366.1C223.259 365.888 220.802 365.136 218.586 363.893C216.371 362.65 214.448 360.946 212.947 358.896H163.067C162.214 358.907 161.368 358.739 160.583 358.404C159.798 358.068 159.092 357.572 158.51 356.948C157.928 356.323 157.484 355.584 157.205 354.777C156.926 353.97 156.819 353.114 156.891 352.264L159.845 310.032C159.998 308.24 160.812 306.569 162.128 305.343C163.444 304.118 165.169 303.425 166.967 303.4Z" fill="#FAFAFA"/>
<path d="M226.574 136.994C226.527 137.586 226.263 138.14 225.831 138.548C225.4 138.955 224.832 139.188 224.238 139.201C223.954 139.205 223.672 139.15 223.411 139.039C223.149 138.927 222.914 138.762 222.721 138.554C222.527 138.346 222.379 138.1 222.287 137.831C222.194 137.562 222.159 137.277 222.183 136.994C222.235 136.404 222.501 135.853 222.931 135.447C223.362 135.04 223.927 134.805 224.519 134.787C224.803 134.783 225.085 134.838 225.346 134.95C225.607 135.061 225.843 135.226 226.036 135.434C226.23 135.642 226.378 135.889 226.47 136.157C226.563 136.426 226.598 136.711 226.574 136.994Z" fill="#0253B3"/>
<path opacity="0.5" d="M226.574 136.994C226.527 137.586 226.263 138.14 225.831 138.548C225.4 138.955 224.832 139.188 224.238 139.201C223.954 139.205 223.672 139.15 223.411 139.039C223.149 138.927 222.914 138.762 222.721 138.554C222.527 138.346 222.379 138.1 222.287 137.831C222.194 137.562 222.159 137.277 222.183 136.994C222.235 136.404 222.501 135.853 222.931 135.447C223.362 135.04 223.927 134.805 224.519 134.787C224.803 134.783 225.085 134.838 225.346 134.95C225.607 135.061 225.843 135.226 226.036 135.434C226.23 135.642 226.378 135.889 226.47 136.157C226.563 136.426 226.598 136.711 226.574 136.994Z" fill="black"/>
<path d="M215.199 139.201H199.799C199.515 139.203 199.234 139.147 198.974 139.035C198.713 138.923 198.479 138.758 198.285 138.55C198.092 138.343 197.944 138.097 197.851 137.829C197.758 137.561 197.721 137.277 197.744 136.994C197.793 136.403 198.058 135.851 198.489 135.444C198.92 135.036 199.486 134.803 200.079 134.787H215.48C215.763 134.785 216.044 134.841 216.305 134.953C216.566 135.065 216.8 135.23 216.993 135.438C217.187 135.646 217.335 135.891 217.428 136.159C217.521 136.427 217.557 136.711 217.535 136.994C217.486 137.585 217.221 138.137 216.79 138.545C216.359 138.952 215.792 139.186 215.199 139.201Z" fill="#0253B3"/>
<path opacity="0.5" d="M215.199 139.201H199.799C199.515 139.203 199.234 139.147 198.974 139.035C198.713 138.923 198.479 138.758 198.285 138.55C198.092 138.343 197.944 138.097 197.851 137.829C197.758 137.561 197.721 137.277 197.744 136.994C197.793 136.403 198.058 135.851 198.489 135.444C198.92 135.036 199.486 134.803 200.079 134.787H215.48C215.763 134.785 216.044 134.841 216.305 134.953C216.566 135.065 216.8 135.23 216.993 135.438C217.187 135.646 217.335 135.891 217.428 136.159C217.521 136.427 217.557 136.711 217.535 136.994C217.486 137.585 217.221 138.137 216.79 138.545C216.359 138.952 215.792 139.186 215.199 139.201Z" fill="black"/>
<path d="M132.977 189.933L134.81 193.517C135.453 194.685 136.106 195.958 136.784 197.16C138.138 199.577 139.516 201.971 140.964 204.294C143.727 208.871 146.892 213.192 150.421 217.208C151.297 218.084 152.243 219.134 152.85 219.613C153.698 220.298 154.605 220.907 155.559 221.435C157.832 222.634 160.198 223.649 162.634 224.47C167.883 226.213 173.228 227.651 178.642 228.779L178.268 235.212C172.188 235.569 166.086 235.212 160.089 234.15C156.893 233.596 153.763 232.716 150.748 231.523C149.07 230.853 147.466 230.012 145.961 229.012C145.182 228.493 144.441 227.92 143.743 227.296L141.898 225.673C137.442 221.35 133.487 216.541 130.105 211.335C128.412 208.801 126.812 206.233 125.353 203.594C124.617 202.274 123.893 200.943 123.204 199.601C122.516 198.258 121.862 196.95 121.173 195.432L132.977 189.933Z" fill="#E58A7B"/>
<path d="M176.308 228.779L181.504 225.113L184.247 235.715C184.247 235.715 179.67 237.326 176.226 235.002L176.308 228.779Z" fill="#E58A7B"/>
<path d="M188.673 222.707L190.518 231.581L184.236 235.714L181.492 225.113L188.673 222.707Z" fill="#E58A7B"/>
<path d="M166.29 153.726C166.15 154.403 166.395 155.022 166.839 155.115C167.282 155.209 167.761 154.741 167.901 154.064C168.041 153.387 167.796 152.757 167.352 152.663C166.909 152.57 166.43 153.048 166.29 153.726Z" fill="#263238"/>
<path d="M166.335 155.01C166.711 157.248 167.39 159.425 168.355 161.479C167.826 161.715 167.251 161.83 166.672 161.818C166.092 161.806 165.523 161.666 165.004 161.409L166.335 155.01Z" fill="#DF5753"/>
<path d="M168.134 149.581C168.055 149.579 167.978 149.555 167.912 149.511C167.464 149.268 166.965 149.135 166.455 149.123C165.946 149.111 165.441 149.22 164.982 149.441C164.884 149.485 164.773 149.488 164.673 149.451C164.572 149.414 164.49 149.339 164.445 149.242C164.422 149.193 164.409 149.14 164.407 149.086C164.405 149.032 164.414 148.979 164.434 148.928C164.454 148.878 164.483 148.832 164.521 148.794C164.559 148.756 164.605 148.725 164.655 148.705C165.237 148.428 165.877 148.295 166.521 148.317C167.165 148.34 167.795 148.517 168.356 148.834C168.401 148.862 168.44 148.899 168.471 148.943C168.501 148.987 168.523 149.037 168.534 149.089C168.545 149.141 168.545 149.195 168.534 149.248C168.524 149.3 168.503 149.35 168.473 149.394C168.437 149.451 168.387 149.499 168.328 149.531C168.269 149.564 168.202 149.581 168.134 149.581Z" fill="#263238"/>
<path d="M142.259 155.898C143.427 162.168 144.711 173.668 140.321 177.848C140.321 177.848 142.038 184.223 153.702 184.223C166.546 184.223 159.82 177.848 159.82 177.848C152.815 176.179 153.013 170.995 154.227 166.172L142.259 155.898Z" fill="#E58A7B"/>
<path d="M138.547 179.647C137.707 177.592 137.847 173.809 138.466 173.75C140.894 173.587 153.855 173.552 158.14 175.198C158.706 175.377 159.232 175.666 159.686 176.05C160.139 176.434 160.512 176.904 160.783 177.433C161.054 177.962 161.216 178.539 161.261 179.132C161.307 179.724 161.234 180.32 161.047 180.884L138.547 179.647Z" fill="#0253B3"/>
<path d="M109.907 414.497C109.153 414.493 108.402 414.411 107.665 414.252C107.627 414.245 107.592 414.227 107.565 414.2C107.538 414.173 107.52 414.138 107.513 414.1C107.508 414.061 107.513 414.021 107.527 413.984C107.541 413.948 107.565 413.915 107.595 413.89C107.7 413.82 110.07 412.209 111.32 412.489C111.455 412.518 111.582 412.576 111.693 412.659C111.803 412.741 111.895 412.847 111.962 412.967C112.063 413.109 112.118 413.278 112.118 413.452C112.118 413.626 112.063 413.795 111.962 413.937C111.674 414.162 111.344 414.328 110.991 414.424C110.638 414.521 110.269 414.545 109.907 414.497ZM108.237 413.96C109.522 414.17 111.273 414.17 111.647 413.68C111.647 413.68 111.787 413.493 111.647 413.166C111.609 413.095 111.556 413.033 111.491 412.984C111.426 412.936 111.352 412.902 111.273 412.886C110.174 412.94 109.117 413.323 108.237 413.983V413.96Z" fill="#0253B3"/>
<path d="M107.711 414.287H107.606C107.574 414.268 107.548 414.241 107.531 414.207C107.514 414.174 107.508 414.137 107.513 414.1C107.513 413.995 107.723 411.519 108.68 410.702C108.802 410.603 108.942 410.529 109.092 410.484C109.243 410.44 109.4 410.427 109.556 410.445C109.708 410.448 109.855 410.502 109.972 410.6C110.089 410.698 110.169 410.833 110.198 410.982C110.373 411.94 108.657 413.808 107.781 414.298L107.711 414.287ZM109.439 410.784C109.271 410.786 109.11 410.848 108.984 410.959C108.377 411.728 108.023 412.666 107.968 413.644C108.844 412.979 109.941 411.566 109.836 410.994C109.836 410.994 109.836 410.819 109.533 410.784H109.439Z" fill="#0253B3"/>
<path d="M97.8115 414.076H106.393L114.298 394.215H105.728L97.8115 414.076Z" fill="#E58A7B"/>
<path d="M107.069 413.084H97.4365C97.2646 413.085 97.0982 413.145 96.9646 413.253C96.8309 413.361 96.738 413.512 96.701 413.68L95.0079 421.304C94.9693 421.49 94.973 421.682 95.0188 421.866C95.0646 422.05 95.1513 422.221 95.2725 422.367C95.3937 422.513 95.5462 422.63 95.7187 422.708C95.8913 422.787 96.0793 422.826 96.2689 422.822C99.6316 422.764 101.266 422.565 105.505 422.565C108.108 422.565 113.479 422.845 117.087 422.845C120.695 422.845 121.15 419.343 119.679 418.957C113.071 417.509 110.584 415.513 108.47 413.621C108.086 413.274 107.587 413.083 107.069 413.084Z" fill="#263238"/>
<path d="M176.903 186.197C179.46 190.867 181.982 195.654 184.469 200.395L191.918 214.628L193.786 218.13C194.181 218.979 194.65 219.792 195.187 220.559C196.492 222.131 198.075 223.449 199.858 224.447C204.173 226.909 208.757 228.868 213.519 230.285L212.795 236.684C211.33 236.715 209.864 236.668 208.405 236.543C206.953 236.451 205.507 236.284 204.073 236.041C201.104 235.584 198.195 234.801 195.398 233.706C192.212 232.51 189.298 230.688 186.827 228.347C185.598 227.075 184.521 225.664 183.616 224.144L181.421 220.641C178.549 215.97 175.782 211.277 173.12 206.56C170.469 201.807 167.901 197.044 165.437 192.175L176.903 186.197Z" fill="#E58A7B"/>
<path d="M118.559 184.959C115.056 192.443 126.253 216.075 126.253 216.075L145.378 207.201C143.291 200.497 140.691 193.962 137.602 187.656C132.605 177.743 122.108 177.311 118.559 184.959Z" fill="#0253B3"/>
<path opacity="0.8" d="M118.559 184.959C115.056 192.443 126.253 216.075 126.253 216.075L145.378 207.201C143.291 200.497 140.691 193.962 137.602 187.656C132.605 177.743 122.108 177.311 118.559 184.959Z" fill="#FAFAFA"/>
<path d="M128.823 186.489L124.502 212.117C125.53 214.534 126.254 216.075 126.254 216.075L145.379 207.202C145.379 207.202 136.739 192.268 128.823 186.489Z" fill="#0253B3"/>
<path opacity="0.7" d="M128.823 186.489L124.502 212.117C125.53 214.534 126.254 216.075 126.254 216.075L145.379 207.202C145.379 207.202 136.739 192.268 128.823 186.489Z" fill="#FAFAFA"/>
<path d="M173.015 180.23C173.015 180.23 182.146 190.552 173.529 254.373H127.654C127.327 247.367 131.752 212.981 124.969 179.786C130.04 178.81 135.168 178.163 140.323 177.848C146.817 177.474 153.327 177.474 159.822 177.848C164.274 178.304 168.685 179.1 173.015 180.23Z" fill="#0253B3"/>
<path opacity="0.8" d="M173.015 180.23C173.015 180.23 182.146 190.552 173.529 254.373H127.654C127.327 247.367 131.752 212.981 124.969 179.786C130.04 178.81 135.168 178.163 140.323 177.848C146.817 177.474 153.327 177.474 159.822 177.848C164.274 178.304 168.685 179.1 173.015 180.23Z" fill="#FAFAFA"/>
<path d="M176.716 195.421L169.629 212.935L176.716 223.244C177.417 213.983 177.417 204.682 176.716 195.421Z" fill="#0253B3"/>
<path opacity="0.7" d="M176.716 195.421L169.629 212.935L176.716 223.244C177.417 213.983 177.417 204.682 176.716 195.421Z" fill="#FAFAFA"/>
<path d="M161.854 185.893C159.028 193.599 170.377 216.974 170.377 216.974L190.927 206.618C188.295 199.611 184.92 192.906 180.862 186.617C174.709 177.626 164.96 177.475 161.854 185.893Z" fill="#0253B3"/>
<path opacity="0.8" d="M161.854 185.893C159.028 193.599 170.377 216.974 170.377 216.974L190.927 206.618C188.295 199.611 184.92 192.906 180.862 186.617C174.709 177.626 164.96 177.475 161.854 185.893Z" fill="#FAFAFA"/>
<path d="M211.815 230.589L220.222 227.226L222.557 237.361C222.557 237.361 215.878 239.778 211.021 236.263L211.815 230.589Z" fill="#E58A7B"/>
<path d="M229.493 227.331L228.197 236.392L222.546 237.361L220.222 227.226L229.493 227.331Z" fill="#E58A7B"/>
<path d="M105.715 394.227H114.297L108.611 408.495L100.671 406.884L105.715 394.227Z" fill="#CF6F64"/>
<path d="M144 147.584C142.832 156.002 141.664 160.871 144.945 166.02C149.931 173.761 160.988 172.092 164.701 164.199C168.052 157.1 169.488 144.513 162.039 139.504C160.396 138.409 158.503 137.748 156.535 137.583C154.567 137.418 152.59 137.755 150.788 138.562C148.986 139.369 147.418 140.62 146.231 142.198C145.044 143.776 144.276 145.629 144 147.584Z" fill="#E58A7B"/>
<path d="M176.365 133.433C169.103 126.719 174.847 125.015 174.847 125.015C174.847 125.015 166.884 121.722 170.037 128.774C174.439 138.605 162.109 135.581 156.201 128.774C152.558 124.571 142.972 128.879 143.439 132.978C143.906 137.076 128.844 133.9 135.663 142.844C135.791 152.185 139.423 161.268 144.245 163.732C152.511 167.947 158.711 156.154 161.023 146.709C173.493 152.698 183.885 140.38 176.365 133.433Z" fill="#263238"/>
<path d="M154.717 152.336C154.764 154.461 155.507 156.512 156.831 158.174C158.594 160.322 160.602 159.143 161.069 156.656C161.489 154.414 161.069 150.596 158.851 149.347C156.632 148.098 154.706 149.791 154.717 152.336Z" fill="#E58A7B"/>
<path d="M135.744 134.099C139.491 133.956 143.167 135.152 146.112 137.473C146.112 137.473 143.999 128.436 135.744 134.099Z" fill="#263238"/>
<path d="M153.434 254.372C153.434 254.372 155.151 289.12 161.491 319.758C163.511 329.461 162.191 339.852 156.505 347.967C139.797 371.798 113.304 403.533 113.304 403.533L99.4214 401.98C99.4214 401.98 121.898 360.309 133.41 339.607C136.026 334.937 138.337 330.663 136.364 325.596C117.297 277.199 127.607 254.372 127.607 254.372H153.434Z" fill="#0253B3"/>
<path opacity="0.3" d="M153.434 254.372C153.434 254.372 155.151 289.12 161.491 319.758C163.511 329.461 162.191 339.852 156.505 347.967C139.797 371.798 113.304 403.533 113.304 403.533L99.4214 401.98C99.4214 401.98 121.898 360.309 133.41 339.607C136.026 334.937 138.337 330.663 136.364 325.596C117.297 277.199 127.607 254.372 127.607 254.372H153.434Z" fill="black"/>
<path d="M156.015 284.403L142.728 268.547C142.226 275.658 146.523 302.256 161.258 318.602C158.911 307.078 157.218 294.923 156.015 284.403Z" fill="#0253B3"/>
<path opacity="0.4" d="M156.015 284.403L142.728 268.547C142.226 275.658 146.523 302.256 161.258 318.602C158.911 307.078 157.218 294.923 156.015 284.403Z" fill="black"/>
<path d="M117.215 401.42L114.495 407.047L97.7632 402.751L99.0942 397.531L117.215 401.42Z" fill="#0253B3"/>
<path opacity="0.1" d="M117.215 401.42L114.495 407.047L97.7632 402.751L99.0942 397.531L117.215 401.42Z" fill="black"/>
<path d="M167.072 414.076H175.642L178.152 394.215H169.582L167.072 414.076Z" fill="#E58A7B"/>
<path d="M179.401 414.497C178.516 414.497 177.633 414.415 176.763 414.252C176.722 414.245 176.684 414.226 176.655 414.196C176.625 414.167 176.606 414.129 176.599 414.088C176.592 414.047 176.598 414.004 176.617 413.966C176.636 413.928 176.667 413.897 176.704 413.878C176.833 413.808 179.822 412.103 181.258 412.489C181.392 412.52 181.518 412.579 181.629 412.661C181.739 412.744 181.831 412.848 181.9 412.967C181.991 413.097 182.04 413.252 182.04 413.411C182.04 413.57 181.991 413.725 181.9 413.855C181.561 414.368 180.499 414.497 179.401 414.497ZM177.416 413.96C179.028 414.182 181.199 414.147 181.585 413.61C181.585 413.539 181.69 413.423 181.585 413.166C181.542 413.094 181.484 413.032 181.416 412.983C181.348 412.935 181.27 412.902 181.188 412.886C180.265 412.664 178.467 413.446 177.475 413.983L177.416 413.96Z" fill="#0253B3"/>
<path d="M176.798 414.287C176.76 414.297 176.72 414.297 176.682 414.287C176.655 414.264 176.633 414.235 176.619 414.203C176.605 414.17 176.598 414.135 176.6 414.1C176.6 413.995 176.845 411.683 177.931 410.796C178.089 410.657 178.275 410.553 178.476 410.493C178.678 410.432 178.89 410.416 179.098 410.445C179.659 410.504 179.811 410.784 179.846 411.018C180.009 411.987 177.954 413.843 176.927 414.298L176.798 414.287ZM178.9 410.784C178.638 410.783 178.384 410.878 178.188 411.053C177.538 411.792 177.13 412.713 177.02 413.691C178.083 413.061 179.472 411.601 179.355 411.018C179.355 411.018 179.355 410.831 178.958 410.784H178.9Z" fill="#0253B3"/>
<path d="M175.888 413.084H166.547C166.376 413.084 166.21 413.143 166.078 413.252C165.946 413.36 165.856 413.512 165.823 413.68L164.119 421.304C164.078 421.488 164.08 421.679 164.123 421.862C164.167 422.045 164.251 422.216 164.37 422.362C164.489 422.508 164.64 422.625 164.811 422.705C164.981 422.785 165.168 422.825 165.356 422.822C168.742 422.764 173.623 422.565 177.861 422.565C182.835 422.565 187.12 422.845 192.947 422.845C196.449 422.845 197.442 419.343 195.971 418.957C189.257 417.486 183.781 417.334 177.978 413.761C177.361 413.339 176.635 413.104 175.888 413.084Z" fill="#263238"/>
<path d="M169.582 394.227H178.164L176.319 408.694L167.913 407.398L169.582 394.227Z" fill="#CF6F64"/>
<path d="M173.529 254.372C173.529 254.372 180.71 278.378 192.572 309.25C196.437 319.291 197.932 328.959 195.246 337.459C186.921 363.846 179.729 403.533 179.729 403.533L165.426 401.98C165.426 401.98 164.877 361.499 169.944 340.635C172.548 329.928 171.661 326.028 168.987 322.49C132.558 274.023 142.342 254.407 142.342 254.407L173.529 254.372Z" fill="#0253B3"/>
<path opacity="0.3" d="M173.529 254.372C173.529 254.372 180.71 278.378 192.572 309.25C196.437 319.291 197.932 328.959 195.246 337.459C186.921 363.846 179.729 403.533 179.729 403.533L165.426 401.98C165.426 401.98 164.877 361.499 169.944 340.635C172.548 329.928 171.661 326.028 168.987 322.49C132.558 274.023 142.342 254.407 142.342 254.407L173.529 254.372Z" fill="black"/>
<path d="M182.203 401.104L181.455 406.802L164.572 403.942L164.07 398.734L182.203 401.104Z" fill="#0253B3"/>
<path opacity="0.1" d="M182.203 401.104L181.455 406.802L164.572 403.942L164.07 398.734L182.203 401.104Z" fill="black"/>
<path d="M306.297 109.451H291.702V110.618H306.297V109.451Z" fill="#0253B3"/>
<path opacity="0.2" d="M306.297 109.451H291.702V110.618H306.297V109.451Z" fill="black"/>
<path d="M263.692 61.2759H342.773C344.881 61.279 346.902 62.1177 348.392 63.6082C349.883 65.0987 350.722 67.1193 350.725 69.2272V98.5806C350.722 100.688 349.883 102.709 348.392 104.2C346.902 105.69 344.881 106.529 342.773 106.532H337.286L339.422 115.16C336.321 114.878 333.31 113.968 330.572 112.484C327.834 111.001 325.426 108.976 323.496 106.532H263.692C261.585 106.526 259.566 105.686 258.076 104.196C256.587 102.706 255.747 100.688 255.741 98.5806V69.2272C255.747 67.1203 256.587 65.1014 258.076 63.6116C259.566 62.1217 261.585 61.282 263.692 61.2759Z" fill="#0253B3"/>
<path opacity="0.2" d="M263.692 61.2759H342.773C344.881 61.279 346.902 62.1177 348.392 63.6082C349.883 65.0987 350.722 67.1193 350.725 69.2272V98.5806C350.722 100.688 349.883 102.709 348.392 104.2C346.902 105.69 344.881 106.529 342.773 106.532H337.286L339.422 115.16C336.321 114.878 333.31 113.968 330.572 112.484C327.834 111.001 325.426 108.976 323.496 106.532H263.692C261.585 106.526 259.566 105.686 258.076 104.196C256.587 102.706 255.747 100.688 255.741 98.5806V69.2272C255.747 67.1203 256.587 65.1014 258.076 63.6116C259.566 62.1217 261.585 61.282 263.692 61.2759Z" fill="black"/>
<path d="M307.325 20.048H306.158V29.7741H307.325V20.048Z" fill="#0253B3"/>
<path opacity="0.1" d="M307.325 20.048H306.158V29.7741H307.325V20.048Z" fill="#FAFAFA"/>
<path d="M295.286 7.25085H216.205C214.101 7.25392 212.084 8.08943 210.594 9.57489C209.104 11.0603 208.263 13.075 208.253 15.1788V44.5556C208.257 46.6635 209.095 48.6841 210.586 50.1746C212.076 51.6651 214.097 52.5038 216.205 52.5069H221.692L219.509 61.1355C222.616 60.8638 225.634 59.9616 228.381 58.4841C231.127 57.0066 233.543 54.9847 235.482 52.542H295.286C297.393 52.5358 299.412 51.6961 300.902 50.2062C302.392 48.7164 303.231 46.6975 303.237 44.5906V15.1788C303.225 13.076 302.383 11.0631 300.894 9.57827C299.404 8.09347 297.389 7.25698 295.286 7.25085Z" fill="#0253B3"/>
<path opacity="0.1" d="M295.286 7.25085H216.205C214.101 7.25392 212.084 8.08943 210.594 9.57489C209.104 11.0603 208.263 13.075 208.253 15.1788V44.5556C208.257 46.6635 209.095 48.6841 210.586 50.1746C212.076 51.6651 214.097 52.5038 216.205 52.5069H221.692L219.509 61.1355C222.616 60.8638 225.634 59.9616 228.381 58.4841C231.127 57.0066 233.543 54.9847 235.482 52.542H295.286C297.393 52.5358 299.412 51.6961 300.902 50.2062C302.392 48.7164 303.231 46.6975 303.237 44.5906V15.1788C303.225 13.076 302.383 11.0631 300.894 9.57827C299.404 8.09347 297.389 7.25698 295.286 7.25085Z" fill="#FAFAFA"/>
</svg>
