<svg width="16" height="16" viewBox="0 0 16 16" fill="none" xmlns="http://www.w3.org/2000/svg">
<g opacity="0.5">
<path d="M8.00045 3.55558C8.9823 3.55558 9.77824 2.75964 9.77824 1.77779C9.77824 0.795944 8.9823 0 8.00045 0C7.0186 0 6.22266 0.795944 6.22266 1.77779C6.22266 2.75964 7.0186 3.55558 8.00045 3.55558Z" fill="black"/>
<path d="M8.00045 9.77775C8.9823 9.77775 9.77824 8.98181 9.77824 7.99996C9.77824 7.01811 8.9823 6.22217 8.00045 6.22217C7.0186 6.22217 6.22266 7.01811 6.22266 7.99996C6.22266 8.98181 7.0186 9.77775 8.00045 9.77775Z" fill="black"/>
<path d="M8.00045 15.9999C8.9823 15.9999 9.77824 15.204 9.77824 14.2221C9.77824 13.2403 8.9823 12.4443 8.00045 12.4443C7.0186 12.4443 6.22266 13.2403 6.22266 14.2221C6.22266 15.204 7.0186 15.9999 8.00045 15.9999Z" fill="black"/>
</g>
</svg>
