<svg width="62" height="62" viewBox="0 0 62 62" fill="none" xmlns="http://www.w3.org/2000/svg">
<path d="M22.908 26.6559V57.8989C22.908 58.4698 23.5427 58.7336 23.8765 58.3013L30.5834 49.6115C30.8033 49.3266 31.1982 49.3266 31.4181 49.6115L38.125 58.3013C38.4587 58.7336 39.0935 58.4698 39.0935 57.8989V26.6559H22.908Z" fill="#FFA730"/>
<path d="M27.7517 26.6559H22.908V57.8989C22.908 58.4698 23.5427 58.7337 23.8765 58.3013L27.7517 53.2803V26.6559Z" fill="#E58D23"/>
<path d="M36.7686 51.6442C36.3674 51.6442 36.042 51.319 36.042 50.9177V42.654C36.042 42.2527 36.3674 41.9274 36.7686 41.9274C37.1697 41.9274 37.4951 42.2527 37.4951 42.654V50.9177C37.4951 51.319 37.1697 51.6442 36.7686 51.6442Z" fill="#FFB74B"/>
<path d="M30.7647 42.7155C31.8224 42.7155 32.6798 41.8581 32.6798 40.8004C32.6798 39.7427 31.8224 38.8853 30.7647 38.8853C29.707 38.8853 28.8496 39.7427 28.8496 40.8004C28.8496 41.8581 29.707 42.7155 30.7647 42.7155Z" fill="#E58D23"/>
<path d="M30.9475 38.5631C30.5345 38.5619 30.1394 38.3389 29.9221 37.9815C28.5657 35.751 26.1998 34.4195 23.593 34.4195C22.7808 34.4195 21.9783 34.5526 21.2078 34.8152C21.0808 34.8585 20.949 34.8805 20.8163 34.8805C20.4933 34.8805 20.1778 34.7472 19.9506 34.5148C19.7214 34.2805 19.5994 33.9705 19.6067 33.6418L19.6092 33.5573C19.6104 33.5242 19.6117 33.4949 19.6117 33.4654C19.6117 30.192 17.5109 27.3481 14.3842 26.389C13.9928 26.2689 13.6908 25.9624 13.5768 25.5691L13.5692 25.5432C13.463 25.1802 13.5347 24.7826 13.7606 24.4796C14.6754 23.2663 15.1877 21.8299 15.2466 20.3203C15.3097 18.6958 14.8017 17.0352 13.8161 15.6439C13.6428 15.3994 13.5954 15.0835 13.689 14.7987L13.7305 14.6727C13.7355 14.6577 13.7803 14.5256 13.82 14.4092C13.9238 14.1037 14.1733 13.8739 14.4871 13.795L14.6256 13.7603C17.9179 12.9331 20.2172 9.98156 20.2172 6.5827C20.2172 6.5471 20.2159 6.51187 20.2147 6.47651L20.2122 6.3852C20.2009 5.97251 20.3977 5.58695 20.7384 5.3536C20.7574 5.34053 20.8285 5.29403 20.8285 5.29403L20.8619 5.27247C21.0534 5.15368 21.2727 5.09119 21.4991 5.09119C21.6593 5.09119 21.8157 5.12231 21.9638 5.18395L21.9833 5.19206C22.8792 5.56201 23.8283 5.74958 24.8043 5.74958C27.1674 5.74958 29.4085 4.60428 30.7995 2.68591C31.0267 2.37276 31.3931 2.18579 31.78 2.18579C32.1644 2.18579 32.5171 2.36198 32.7479 2.6692C34.1614 4.5499 36.3192 5.62849 38.6679 5.62849C38.9468 5.62849 39.2303 5.61311 39.5106 5.58271C39.8526 5.54554 40.2187 5.47433 40.6294 5.36474C40.722 5.34004 40.8177 5.32745 40.9136 5.32745C41.1453 5.32745 41.3674 5.39877 41.5559 5.53367L41.5977 5.5637C41.616 5.57678 41.7188 5.6527 41.7188 5.6527C42.0119 5.86644 42.1811 6.21034 42.1717 6.57277L42.1681 6.70949C42.1667 6.75163 42.1654 6.78808 42.1654 6.82489C42.1654 10.0783 44.3434 12.9957 47.462 13.9194C47.8349 14.0299 48.1338 14.315 48.2617 14.6822C48.3897 15.0493 48.3324 15.4585 48.1089 15.7766C47.231 17.0262 46.7669 18.4951 46.7669 20.0241C46.7669 21.6135 47.265 23.1293 48.2075 24.4081C48.4362 24.7184 48.5033 25.1081 48.3916 25.4771C48.28 25.8461 48.0083 26.1332 47.6458 26.2647C44.7448 27.3182 42.7858 30.1006 42.7716 33.1885C42.7685 33.8533 42.2257 34.3943 41.5616 34.3943C41.4291 34.3943 41.2977 34.3725 41.1709 34.3294C40.4016 34.0681 39.6002 33.9355 38.789 33.9355C36.0298 33.9355 33.5193 35.4547 32.2341 37.9012L32.2277 37.9134C32.0201 38.3105 31.6128 38.5594 31.1646 38.5633C31.0886 38.5639 31.0281 38.5644 31.0178 38.5644L30.9475 38.5631Z" fill="#FF624B"/>
<path d="M33.5218 34.4185C32.7096 34.4185 31.9072 34.5516 31.1366 34.8143C31.0096 34.8575 30.8779 34.8795 30.7451 34.8795C30.4222 34.8795 30.1066 34.7462 29.8794 34.5138C29.6502 34.2795 29.5283 33.9695 29.5355 33.6409L29.5381 33.5563C29.5393 33.5233 29.5405 33.494 29.5405 33.4644C29.5405 30.191 27.4398 27.3471 24.313 26.3881C23.9216 26.2679 23.6196 25.9615 23.5057 25.5681L23.498 25.5422C23.3918 25.1792 23.4635 24.7816 23.6895 24.4787C24.6042 23.2653 25.1166 21.8289 25.1754 20.3193C25.2385 18.6949 24.7305 17.0342 23.7449 15.6429C23.5717 15.3984 23.5242 15.0825 23.6178 14.7977L23.6593 14.6718C23.6643 14.6567 23.7091 14.5246 23.7488 14.4083C23.8526 14.1027 24.1022 13.8729 24.4159 13.7941L24.5545 13.7593C27.8468 12.9321 30.1461 9.98059 30.1461 6.58173C30.1461 6.54613 30.1448 6.51089 30.1435 6.47553L30.141 6.38423C30.1297 5.97154 30.3265 5.58598 30.6673 5.35263C30.6863 5.33955 30.7574 5.29305 30.7574 5.29305L30.7908 5.27149C30.9822 5.1527 31.2015 5.09022 31.428 5.09022C31.5882 5.09022 31.7445 5.12134 31.8926 5.18298L31.9121 5.19109C32.8081 5.56103 33.7571 5.7486 34.7331 5.7486C35.4778 5.7486 36.2103 5.63429 36.9081 5.4185C35.2613 5.02083 33.7982 4.06685 32.7469 2.66822C32.5161 2.36101 32.1634 2.18481 31.779 2.18481C31.3923 2.18481 31.0257 2.37166 30.7985 2.68493C29.4077 4.6033 27.1664 5.7486 24.8033 5.7486C23.8273 5.7486 22.8784 5.56103 21.9823 5.19109L21.9628 5.18298C21.8147 5.12134 21.6584 5.09022 21.4982 5.09022C21.2717 5.09022 21.0524 5.1527 20.861 5.27149L20.8276 5.29305C20.8276 5.29305 20.7565 5.33955 20.7375 5.35263C20.3968 5.58585 20.2 5.97142 20.2112 6.38423L20.2137 6.47553C20.2149 6.51089 20.2163 6.54613 20.2163 6.58173C20.2163 9.98071 17.9169 12.9323 14.6246 13.7593L14.4861 13.7941C14.1724 13.8729 13.9229 14.1027 13.819 14.4083C13.7793 14.5246 13.7345 14.6567 13.7295 14.6718L13.688 14.7977C13.5944 15.0825 13.6418 15.3986 13.8151 15.6429C14.8008 17.0341 15.3088 18.6949 15.2456 20.3193C15.1869 21.8288 14.6744 23.2653 13.7597 24.4787C13.5337 24.7816 13.462 25.1793 13.5682 25.5422L13.5758 25.5681C13.6898 25.9615 13.9918 26.2679 14.3832 26.3881C17.5099 27.3471 19.6107 30.191 19.6107 33.4644C19.6107 33.494 19.6095 33.5233 19.6083 33.5563L19.6057 33.6409C19.5983 33.9695 19.7204 34.2795 19.9496 34.5138C20.1768 34.7462 20.4924 34.8795 20.8153 34.8795C20.9482 34.8795 21.0799 34.8576 21.2068 34.8143C21.9773 34.5517 22.7798 34.4185 23.592 34.4185C26.1987 34.4185 28.5646 35.7501 29.9211 37.9805C30.1385 38.338 30.5336 38.5609 30.9465 38.5621L31.0165 38.563C31.0268 38.563 31.0872 38.5625 31.1633 38.5619C31.6114 38.5581 32.0188 38.309 32.2264 37.912L32.2328 37.8997C32.9798 36.4777 34.1413 35.3698 35.5246 34.6906C34.8833 34.5126 34.2111 34.4185 33.5218 34.4185Z" fill="#FF4B34"/>
<path d="M31.0003 33.1138C38.0423 33.1138 43.7509 27.4052 43.7509 20.3632C43.7509 13.3213 38.0423 7.61267 31.0003 7.61267C23.9584 7.61267 18.2498 13.3213 18.2498 20.3632C18.2498 27.4052 23.9584 33.1138 31.0003 33.1138Z" fill="#FFC34C"/>
<path d="M31.0003 30.6919C36.7047 30.6919 41.329 26.0676 41.329 20.3632C41.329 14.6589 36.7047 10.0345 31.0003 10.0345C25.2959 10.0345 20.6716 14.6589 20.6716 20.3632C20.6716 26.0676 25.2959 30.6919 31.0003 30.6919Z" fill="#FCE575"/>
<path d="M30.3032 14.0103L28.934 16.7845C28.7926 17.071 28.5193 17.2696 28.2031 17.3155L25.1416 17.7604C24.5047 17.8529 24.2502 18.6358 24.7112 19.0851L26.9267 21.2445C27.1554 21.4676 27.2599 21.7888 27.2059 22.1038L26.6829 25.153C26.574 25.7874 27.2399 26.2711 27.8097 25.9717L30.548 24.5321C30.8307 24.3834 31.1686 24.3834 31.4514 24.5321L34.1897 25.9717C34.7595 26.2713 35.4254 25.7874 35.3165 25.153L34.7935 22.1038C34.7395 21.7888 34.8439 21.4676 35.0727 21.2445L37.288 19.0851C37.7489 18.6358 37.4946 17.8529 36.8577 17.7604L33.7962 17.3155C33.48 17.2696 33.2067 17.071 33.0653 16.7845L31.696 14.0103C31.4111 13.433 30.5882 13.433 30.3032 14.0103Z" fill="#FFC34C"/>
<path d="M34.4513 29.1837C34.164 29.1837 33.892 29.0122 33.7776 28.7295C33.6273 28.3579 33.8063 27.9348 34.1775 27.7839C34.209 27.7711 37.3357 26.4677 38.1803 23.8727C38.3044 23.4911 38.7143 23.2824 39.0961 23.4067C39.4776 23.5308 39.6863 23.9409 39.5621 24.3224C38.5057 27.5681 34.8777 29.0682 34.7238 29.1305C34.6343 29.1666 34.542 29.1837 34.4513 29.1837Z" fill="#FFF4C1"/>
<path d="M29.7487 22.7092C29.8027 22.3943 29.6984 22.073 29.4695 21.8499L27.2542 19.6905C26.7933 19.2412 27.0476 18.4584 27.6846 18.3658L30.7461 17.9209C31.0622 17.875 31.3356 17.6763 31.477 17.3899L32.4206 15.4782L31.6961 14.0102C31.4111 13.433 30.5882 13.433 30.3032 14.0102L28.934 16.7845C28.7926 17.071 28.5193 17.2696 28.2031 17.3155L25.1416 17.7604C24.5047 17.8529 24.2502 18.6358 24.7112 19.085L26.9265 21.2445C27.1553 21.4675 27.2597 21.7888 27.2058 22.1038L26.6828 25.1529C26.574 25.7873 27.2398 26.2711 27.8095 25.9716L29.3259 25.1745L29.7487 22.7092Z" fill="#FFA730"/>
<path d="M42.0557 20.3633C42.0557 20.9321 42.0124 21.4908 41.9291 22.0367L42.889 22.1677C42.978 21.5789 43.0244 20.9765 43.0244 20.3633C43.0244 17.0129 41.6465 13.9787 39.4282 11.7961L39.0435 12.7869C40.9099 14.7672 42.0557 17.4338 42.0557 20.3633Z" fill="#FFD551"/>
</svg>
