<svg width="66" height="47" viewBox="0 0 66 47" fill="none" xmlns="http://www.w3.org/2000/svg">
<rect x="0.5" y="0.5" width="65" height="46" rx="9.5" fill="#FDFEFF" stroke="#0253B3"/>
<path d="M15.6359 16.4836C16.0216 15.8213 16.9784 15.8213 17.3641 16.4836L19.0261 19.3371C19.1674 19.5797 19.4042 19.7517 19.6786 19.8111L22.906 20.51C23.655 20.6722 23.9507 21.5821 23.44 22.1536L21.2398 24.6161C21.0527 24.8254 20.9623 25.1038 20.9906 25.3831L21.3232 28.6685C21.4004 29.431 20.6264 29.9934 19.9251 29.6843L16.9032 28.3527C16.6463 28.2395 16.3537 28.2395 16.0968 28.3527L13.0749 29.6843C12.3736 29.9934 11.5996 29.431 11.6768 28.6685L12.0094 25.3831C12.0377 25.1038 11.9473 24.8254 11.7602 24.6161L9.55997 22.1536C9.04932 21.5821 9.34497 20.6722 10.094 20.51L13.3214 19.8111C13.5958 19.7517 13.8326 19.5797 13.9739 19.3371L15.6359 16.4836Z" fill="#0253B3"/>
<path d="M31.1361 9.48359C31.5218 8.82132 32.4786 8.82132 32.8643 9.48359L35.6578 14.2797C35.7991 14.5223 36.0359 14.6944 36.3103 14.7538L41.7349 15.9285C42.484 16.0907 42.7796 17.0006 42.269 17.5721L38.5708 21.711C38.3837 21.9203 38.2933 22.1987 38.3216 22.478L38.8807 28.0002C38.9579 28.7627 38.1839 29.325 37.4825 29.016L32.4034 26.7778C32.1465 26.6646 31.8538 26.6646 31.5969 26.7778L26.5178 29.016C25.8165 29.325 25.0425 28.7627 25.1197 28.0002L25.6788 22.478C25.7071 22.1987 25.6166 21.9203 25.4296 21.711L21.7314 17.5721C21.2207 17.0006 21.5164 16.0907 22.2654 15.9285L27.6901 14.7538C27.9645 14.6944 28.2013 14.5223 28.3426 14.2797L31.1361 9.48359Z" fill="#0253B3"/>
<path d="M46.6359 16.4836C47.0216 15.8213 47.9784 15.8213 48.3641 16.4836L50.0261 19.3371C50.1674 19.5797 50.4042 19.7517 50.6786 19.8111L53.906 20.51C54.655 20.6722 54.9507 21.5821 54.44 22.1536L52.2398 24.6161C52.0527 24.8254 51.9623 25.1038 51.9906 25.3831L52.3232 28.6685C52.4004 29.431 51.6264 29.9934 50.9251 29.6843L47.9032 28.3527C47.6463 28.2395 47.3537 28.2395 47.0968 28.3527L44.0749 29.6843C43.3736 29.9934 42.5996 29.431 42.6768 28.6685L43.0094 25.3831C43.0377 25.1038 42.9473 24.8254 42.7602 24.6161L40.56 22.1536C40.0493 21.5821 40.345 20.6722 41.094 20.51L44.3214 19.8111C44.5958 19.7517 44.8326 19.5797 44.9739 19.3371L46.6359 16.4836Z" fill="#0253B3"/>
</svg>
