<svg width="66" height="47" viewBox="0 0 66 47" fill="none" xmlns="http://www.w3.org/2000/svg">
<rect x="0.5" y="0.5" width="65" height="46" rx="9.5" fill="#FDFEFF" stroke="#0253B3"/>
<path d="M19.1359 12.4836C19.5217 11.8213 20.4784 11.8213 20.8642 12.4836L23.6577 17.2797C23.799 17.5223 24.0358 17.6944 24.3101 17.7538L29.7348 18.9285C30.4838 19.0907 30.7795 20.0006 30.2688 20.5721L26.5707 24.711C26.3836 24.9203 26.2932 25.1987 26.3215 25.478L26.8806 31.0002C26.9578 31.7627 26.1837 32.325 25.4824 32.016L20.4033 29.7778C20.1464 29.6646 19.8537 29.6646 19.5968 29.7778L14.5177 32.016C13.8164 32.325 13.0423 31.7627 13.1196 31.0002L13.6787 25.478C13.7069 25.1987 13.6165 24.9203 13.4294 24.711L9.73128 20.5721C9.22062 20.0006 9.51627 19.0907 10.2653 18.9285L15.69 17.7538C15.9644 17.6944 16.2011 17.5223 16.3424 17.2797L19.1359 12.4836Z" fill="#0253B3"/>
<path d="M44.1361 12.4836C44.5218 11.8213 45.4786 11.8213 45.8643 12.4836L48.6578 17.2797C48.7991 17.5223 49.0359 17.6944 49.3103 17.7538L54.7349 18.9285C55.484 19.0907 55.7796 20.0006 55.269 20.5721L51.5708 24.711C51.3837 24.9203 51.2933 25.1987 51.3216 25.478L51.8807 31.0002C51.9579 31.7627 51.1839 32.325 50.4825 32.016L45.4034 29.7778C45.1465 29.6646 44.8538 29.6646 44.5969 29.7778L39.5178 32.016C38.8165 32.325 38.0425 31.7627 38.1197 31.0002L38.6788 25.478C38.7071 25.1987 38.6166 24.9203 38.4296 24.711L34.7314 20.5721C34.2207 20.0006 34.5164 19.0907 35.2654 18.9285L40.6901 17.7538C40.9645 17.6944 41.2013 17.5223 41.3426 17.2797L44.1361 12.4836Z" fill="#0253B3"/>
</svg>
