<svg width="66" height="47" viewBox="0 0 66 47" fill="none" xmlns="http://www.w3.org/2000/svg">
<rect x="0.5" y="0.5" width="65" height="46" rx="9.5" fill="white" stroke="#0253B3"/>
<path d="M32.1359 12.4836C32.5217 11.8213 33.4784 11.8213 33.8642 12.4836L36.6577 17.2797C36.799 17.5223 37.0358 17.6944 37.3101 17.7538L42.7348 18.9285C43.4838 19.0907 43.7795 20.0006 43.2688 20.5721L39.5707 24.711C39.3836 24.9203 39.2932 25.1987 39.3215 25.478L39.8806 31.0002C39.9578 31.7627 39.1837 32.325 38.4824 32.016L33.4033 29.7778C33.1464 29.6646 32.8537 29.6646 32.5968 29.7778L27.5177 32.016C26.8164 32.325 26.0423 31.7627 26.1196 31.0002L26.6787 25.478C26.7069 25.1987 26.6165 24.9203 26.4294 24.711L22.7313 20.5721C22.2206 20.0006 22.5163 19.0907 23.2653 18.9285L28.69 17.7538C28.9644 17.6944 29.2011 17.5223 29.3424 17.2797L32.1359 12.4836Z" fill="#0253B3"/>
</svg>
