<svg width="66" height="47" viewBox="0 0 66 47" fill="none" xmlns="http://www.w3.org/2000/svg">
<rect x="0.5" y="0.5" width="65" height="46" rx="9.5" fill="#FDFEFF" stroke="#0253B3"/>
<path d="M21.1359 4.48359C21.5216 3.82132 22.4784 3.82132 22.8641 4.48359L25.3343 8.72466C25.4756 8.96726 25.7124 9.13929 25.9868 9.19871L30.7836 10.2374C31.5327 10.3997 31.8283 11.3096 31.3177 11.8811L28.0475 15.541C27.8604 15.7503 27.77 16.0287 27.7983 16.308L28.2927 21.191C28.3699 21.9535 27.5959 22.5159 26.8945 22.2069L22.4032 20.2277C22.1463 20.1145 21.8537 20.1145 21.5968 20.2277L17.1055 22.2069C16.4041 22.5159 15.6301 21.9535 15.7073 21.191L16.2017 16.308C16.23 16.0287 16.1396 15.7503 15.9525 15.541L12.6823 11.8811C12.1717 11.3096 12.4673 10.3997 13.2164 10.2374L18.0132 9.19871C18.2876 9.13929 18.5244 8.96726 18.6657 8.72466L21.1359 4.48359Z" fill="#0253B3"/>
<path d="M43.1359 4.48359C43.5216 3.82132 44.4784 3.82132 44.8641 4.48359L47.3343 8.72466C47.4756 8.96726 47.7124 9.13929 47.9868 9.19871L52.7836 10.2374C53.5327 10.3997 53.8283 11.3096 53.3177 11.8811L50.0475 15.541C49.8604 15.7503 49.77 16.0287 49.7983 16.308L50.2927 21.191C50.3699 21.9535 49.5959 22.5159 48.8945 22.2069L44.4032 20.2277C44.1463 20.1145 43.8537 20.1145 43.5968 20.2277L39.1055 22.2069C38.4041 22.5159 37.6301 21.9535 37.7073 21.191L38.2017 16.308C38.23 16.0287 38.1396 15.7503 37.9525 15.541L34.6823 11.8811C34.1717 11.3096 34.4673 10.3997 35.2164 10.2374L40.0132 9.19871C40.2876 9.13929 40.5244 8.96726 40.6657 8.72466L43.1359 4.48359Z" fill="#0253B3"/>
<path d="M21.1359 23.4836C21.5216 22.8213 22.4784 22.8213 22.8641 23.4836L25.3343 27.7247C25.4756 27.9673 25.7124 28.1393 25.9868 28.1987L30.7836 29.2374C31.5327 29.3997 31.8283 30.3096 31.3177 30.8811L28.0475 34.541C27.8604 34.7503 27.77 35.0287 27.7983 35.308L28.2927 40.191C28.3699 40.9535 27.5959 41.5159 26.8945 41.2069L22.4032 39.2277C22.1463 39.1145 21.8537 39.1145 21.5968 39.2277L17.1055 41.2069C16.4041 41.5159 15.6301 40.9535 15.7073 40.191L16.2017 35.308C16.23 35.0287 16.1396 34.7503 15.9525 34.541L12.6823 30.8811C12.1717 30.3096 12.4673 29.3997 13.2164 29.2374L18.0132 28.1987C18.2876 28.1393 18.5244 27.9673 18.6657 27.7247L21.1359 23.4836Z" fill="#0253B3"/>
<path d="M43.1359 23.4836C43.5216 22.8213 44.4784 22.8213 44.8641 23.4836L47.3343 27.7247C47.4756 27.9673 47.7124 28.1393 47.9868 28.1987L52.7836 29.2374C53.5327 29.3997 53.8283 30.3096 53.3177 30.8811L50.0475 34.541C49.8604 34.7503 49.77 35.0287 49.7983 35.308L50.2927 40.191C50.3699 40.9535 49.5959 41.5159 48.8945 41.2069L44.4032 39.2277C44.1463 39.1145 43.8537 39.1145 43.5968 39.2277L39.1055 41.2069C38.4041 41.5159 37.6301 40.9535 37.7073 40.191L38.2017 35.308C38.23 35.0287 38.1396 34.7503 37.9525 34.541L34.6823 30.8811C34.1717 30.3096 34.4673 29.3997 35.2164 29.2374L40.0132 28.1987C40.2876 28.1393 40.5244 27.9673 40.6657 27.7247L43.1359 23.4836Z" fill="#0253B3"/>
</svg>
